<?xml version="1.0" encoding="utf-8"?>
<!-- Generator: Adobe Illustrator 25.4.1, SVG Export Plug-In . SVG Version: 6.00 Build 0)  -->
<svg version="1.1" baseProfile="tiny" xmlns="http://www.w3.org/2000/svg" xmlns:xlink="http://www.w3.org/1999/xlink" x="0px"
	 y="0px" viewBox="0 0 1366 768" overflow="visible" xml:space="preserve">
<g id="Capa_2_copia_3" display="none">
	<g id="XMLID_00000119821808688024562890000001330716944379407025_" display="inline">
		<g>
			<path fill="#F70606" d="M707,591c-0.02-0.08-0.03-0.16-0.05-0.24c0.01-0.16,0.02-0.32,0.03-0.47c0.01,0,0.01,0,0.02,0V591z"/>
			<path fill="#F70606" d="M706.84,590.27c0.05,0.01,0.09,0.01,0.14,0.02c-0.01,0.15-0.02,0.31-0.03,0.47
				C706.91,590.6,706.87,590.43,706.84,590.27z"/>
			<path fill="#F70606" d="M707.06,603.92c-0.17-4.32-0.45-8.66-0.11-13.16c0.02,0.08,0.03,0.16,0.05,0.24v-0.71
				c4.56,0.45,9.23,0.53,13.76,0.76c10.84,0.53,22.97,2.96,28.91,12.04C735.47,603.37,721.26,603.65,707.06,603.92z"/>
			<path fill="#F70606" d="M670.05,557.75c0.32,0.07,0.63,0.14,0.95,0.25C670.37,558,670.14,558,670.05,557.75z"/>
			<path fill="#F70606" d="M706.95,590.76c-0.34,4.5-0.06,8.84,0.11,13.16c-28.07,0.55-56.14,1.1-84.22,1.65
				c19.35-7.06,34.03-26.09,35.01-46.61c4.1,0.15,7.92-2.15,12.2-1.21c0.09,0.25,0.32,0.25,0.95,0.25
				c-0.32-0.11-0.63-0.18-0.95-0.25C670,557.6,670,557.37,670,557c2.11,1.41,3.72,2.33,5.19,3.79c2.22,9.62,6.1,18.58,14.08,23.96
				c5.19,3.51,11.27,4.88,17.57,5.52C706.87,590.43,706.91,590.6,706.95,590.76z"/>
			<path fill="#F70606" d="M630.06,517.08c-18.27-11.18-32.22-29.22-38.57-49.67l-1.58,0.48c-1.13-3.76-2.26-7.51-3.39-11.27
				c3.03,10.95,6.08,21.96,7.2,33.27c1.12,11.3,0.23,23.02-4.36,33.42c-10.2,23.1-36.79,36.29-45.2,60.11
				c-1.31,3.71-2.11,7.9-0.54,11.51c1.87,4.3,6.51,6.57,10.79,8.5c-40.78-1.25-81.61-0.79-122.36,1.39
				c9.79-10.09,25.08-12.13,39.13-12.51c14.05-0.38,28.86,0.14,41.23-6.53c9.53-5.15,16.69-14.48,19.26-25l0.53,0.13
				c5.6-13.08,11.2-26.17,16.79-39.25c1.42-3.3,2.54-7.8-0.35-9.93c-2.8-2.05-7.47-0.08-9.84-2.61c-2.63-2.8,0.54-7.5-0.64-11.15
				c-0.72-2.25-3.02-3.67-5.33-4.17c-2.32-0.5-4.71-0.27-7.08-0.32c-8.34-0.19-16.19-3.87-23.4-8.07
				c-23.13-13.47-42.59-33.17-55.77-56.47c0.06,16.82,6.08,33.57,16.74,46.58c10.66,13.02,25.88,22.22,42.36,25.6
				c-14.66,2.14-30.03-0.95-42.74-8.57l-1.13-1.21c-10.42-6.42-15.93-18.4-19.74-30.03c-8.29-25.34-11.26-52.28-20.94-77.13
				c-0.63-1.61-1.32-3.27-2.61-4.44c-1.28-1.16-3.33-1.66-4.77-0.7c-1.16,0.77-1.62,2.22-1.99,3.56c-1.62,5.7-3.23,11.39-4.85,17.08
				l-2.69-0.48c-1.76-4.1-2.7-8.5-3.47-12.9c-6.91-39.53-0.53-81.26,17.89-116.92l-0.64-0.4c6.5-10.54,13.58-20.73,21.18-30.51
				c3.63-4.67,7.37-9.24,11.11-13.82c4.26-5.19,8.51-10.39,12.77-15.59c-3.35,1.45-6.69,2.91-10.04,4.36
				c-1.72,0.75-3.84,1.46-5.34,0.33c-1.46-1.1-1.41-3.27-1.22-5.09c0.49-4.64,0.99-9.34,2.67-13.69
				c3.33-8.57,10.78-14.75,17.93-20.53c0.85-0.69,1.7-1.37,2.54-2.05l-0.09-0.11c0.43-2.27-2.37-3.92-4.67-3.74
				c-2.3,0.17-4.46,1.35-6.76,1.4c-2.31,0.05-4.97-1.97-4.17-4.14c0.73-2.01,3.49-2.12,5.62-1.89c2.13,0.23,4.9,0.05,5.56-1.99
				c0.48-1.49-0.67-3.12-2.13-3.71c-1.45-0.6-3.09-0.45-4.65-0.28c-3.23,0.35-6.47,0.69-9.7,1.04c-1.68,0.18-3.66,0.24-4.71-1.08
				c-0.89-1.12-0.65-2.83,0.17-4c0.82-1.18,2.1-1.94,3.33-2.67c3.95-2.33,7.9-4.66,11.84-6.99c2.55-1.5,5.24-3.16,6.47-5.85
				c2.45-5.38-2.14-11.84-0.29-17.46c1.02-3.08,3.94-5.31,7.11-5.96c3.18-0.66,6.54,0.13,9.38,1.7c2.57,1.42,5.48,3.53,8.14,2.28
				c1.59-0.76,2.45-2.58,2.56-4.34c0.11-1.76-0.41-3.49-0.92-5.18c-1.4-4.58-2.79-9.16-4.18-13.74c-0.47-1.54-0.94-3.18-0.49-4.73
				c0.57-1.99,2.61-3.3,4.67-3.56c2.05-0.27,4.12,0.34,6.05,1.1c7.56,2.99,14.03,8.66,17.98,15.76l2.3,1.22
				c1.51-2.65,1.35-5.89,1.82-8.9c0.47-3.02,2.09-6.35,5.09-6.89c2.47-0.44,4.8,1.2,6.62,2.91c5.27,4.93,9.17,11.3,11.19,18.22
				c6.47-4.9,11.72-11.39,15.16-18.74c0.98-2.09,1.83-4.28,3.27-6.09c1.43-1.81,3.61-3.22,5.91-3.05c2.37,0.18,4.36,2.01,5.41,4.15
				s1.32,4.56,1.58,6.92c0.64,5.82,1.28,11.63,1.91,17.44c7.59-1.06,14.7-5.17,19.4-11.21c4.39,17.14,0.12,36.27-11.13,49.93
				c-3.01,3.66-6.71,7.06-11.32,8.18c-3.42,0.83-7.21,0.36-10.33,2.01c-3.41,1.8-5.19,5.8-5.38,9.66
				c-0.18,3.85,0.96,7.63,2.09,11.32l0.9,0.01c4.96,24.18,3.91,49.57-3.05,73.26c-3.08,10.5-7.31,20.7-9.39,31.44
				c-2.08,10.75-1.81,22.45,3.67,31.92c5.51,9.52,15.46,15.52,25.4,20.23c9.94,4.7,20.46,8.63,28.92,15.65
				c-6.44-42.17,6.13-86.87,33.6-119.51c27.47-32.63,69.37-52.65,112.02-53.51v0.38c20.51-0.1,40.73,7.42,57.18,19.66
				c16.5,12.27,29.32,29.11,38.27,47.61c6.07,12.54,10.44,25.89,12.96,39.59c-10.81-16.99-22.13-33.97-37.2-47.31
				c-15.07-13.34-34.49-22.86-54.6-22.17c10.36,1.43,19.47,7.5,27.6,14.08c33.44,27.05,57.21,65.85,66.12,107.93l0.06-0.01
				c5.95,17.95,3.58,37.65-1.38,55.9c-4.97,18.25-12.45,35.77-16.81,54.17c-3.43,14.46-4.43,31.12,4.79,42.76
				c-9.75-4.33-16.08-14.39-18.19-24.85c-2.12-10.46-0.56-21.32,1.89-31.7c2.45-10.39,5.78-20.59,7.26-31.16
				c2.88-20.5-1.53-41.95-12.28-59.64c2.25,36.79-2.91,74.01-15.08,108.8c-5.06,14.47-11.34,28.59-14.57,43.58
				c-3.24,14.98-3.15,31.33,4.08,44.85c-11.64-7.94-16.88-22.73-17.46-36.8c-0.57-14.07,2.77-27.96,4.75-41.9
				c1.98-13.95,2.49-28.72-3.34-41.54l-1.68-0.95c-7.37,13.04-14.66,26.13-21.95,39.22c-4.34,7.8-8.68,15.6-13.03,23.4
				c0.81-17.47,1.61-34.94,2.42-52.4c-7.68,20.34-18.39,39.53-31.68,56.74c6.22-29.76,6.58-60.74,1.04-90.63
				c-2.63,36.74-15.48,72.69-36.72,102.78c-0.16-8.81-0.31-17.62-0.47-26.43c-4.22-4.25-12.11-1.42-14.99,3.83
				c-2.87,5.25-2.24,11.64-1.53,17.59c1.98,16.63,3.97,33.27,5.95,49.91c0.58,4.82,1.28,9.83,2.4,14.68
				c-1.47-1.46-3.08-2.38-5.19-3.79c0,0.37,0,0.6,0.05,0.75c-4.28-0.94-8.1,1.36-12.2,1.21c0.02-0.56,0.04-1.13,0.05-1.7
				c0.12-11.11-3.85-22.55-12.11-29.98C641.13,523.09,635.4,520.35,630.06,517.08z"/>
		</g>
		<g>
			<path fill="none" stroke="#000000" stroke-miterlimit="10" d="M707.06,603.92c14.2-0.27,28.41-0.55,42.61-0.83
				c-5.94-9.08-18.07-11.51-28.91-12.04c-4.53-0.23-9.2-0.31-13.76-0.76"/>
			<path fill="none" stroke="#000000" stroke-miterlimit="10" d="M706.98,590.29c-0.05-0.01-0.09-0.01-0.14-0.02"/>
			<path fill="none" stroke="#000000" stroke-miterlimit="10" d="M707,590.29c-0.01,0-0.01,0-0.02,0c-0.01,0.15-0.02,0.31-0.03,0.47
				c0.02,0.08,0.03,0.16,0.05,0.24V590.29z"/>
			<path fill="none" stroke="#000000" stroke-miterlimit="10" d="M675.19,560.79c-1.12-4.85-1.82-9.86-2.4-14.68
				c-1.98-16.64-3.97-33.28-5.95-49.91c-0.71-5.95-1.34-12.34,1.53-17.59c2.88-5.25,10.77-8.08,14.99-3.83
				c0.16,8.81,0.31,17.62,0.47,26.43c21.24-30.09,34.09-66.04,36.72-102.78c5.54,29.89,5.18,60.87-1.04,90.63
				c13.29-17.21,24-36.4,31.68-56.74c-0.81,17.46-1.61,34.93-2.42,52.4c4.35-7.8,8.69-15.6,13.03-23.4
				c7.29-13.09,14.58-26.18,21.95-39.22l1.68,0.95c5.83,12.82,5.32,27.59,3.34,41.54c-1.98,13.94-5.32,27.83-4.75,41.9
				c0.58,14.07,5.82,28.86,17.46,36.8c-7.23-13.52-7.32-29.87-4.08-44.85c3.23-14.99,9.51-29.11,14.57-43.58
				c12.17-34.79,17.33-72.01,15.08-108.8c10.75,17.69,15.16,39.14,12.28,59.64c-1.48,10.57-4.81,20.77-7.26,31.16
				c-2.45,10.38-4.01,21.24-1.89,31.7c2.11,10.46,8.44,20.52,18.19,24.85c-9.22-11.64-8.22-28.3-4.79-42.76
				c4.36-18.4,11.84-35.92,16.81-54.17c4.96-18.25,7.33-37.95,1.38-55.9l-0.06,0.01c-8.91-42.08-32.68-80.88-66.12-107.93
				c-8.13-6.58-17.24-12.65-27.6-14.08c20.11-0.69,39.53,8.83,54.6,22.17c15.07,13.34,26.39,30.32,37.2,47.31
				c-2.52-13.7-6.89-27.05-12.96-39.59c-8.95-18.5-21.77-35.34-38.27-47.61c-16.45-12.24-36.67-19.76-57.18-19.66v-0.38
				c-42.65,0.86-84.55,20.88-112.02,53.51c-27.47,32.64-40.04,77.34-33.6,119.51c-8.46-7.02-18.98-10.95-28.92-15.65
				c-9.94-4.71-19.89-10.71-25.4-20.23c-5.48-9.47-5.75-21.17-3.67-31.92c2.08-10.74,6.31-20.94,9.39-31.44
				c6.96-23.69,8.01-49.08,3.05-73.26l-0.9-0.01c-1.13-3.69-2.27-7.47-2.09-11.32c0.19-3.86,1.97-7.86,5.38-9.66
				c3.12-1.65,6.91-1.18,10.33-2.01c4.61-1.12,8.31-4.52,11.32-8.18c11.25-13.66,15.52-32.79,11.13-49.93
				c-4.7,6.04-11.81,10.15-19.4,11.21c-0.63-5.81-1.27-11.62-1.91-17.44c-0.26-2.36-0.53-4.78-1.58-6.92s-3.04-3.97-5.41-4.15
				c-2.3-0.17-4.48,1.24-5.91,3.05c-1.44,1.81-2.29,4-3.27,6.09c-3.44,7.35-8.69,13.84-15.16,18.74
				c-2.02-6.92-5.92-13.29-11.19-18.22c-1.82-1.71-4.15-3.35-6.62-2.91c-3,0.54-4.62,3.87-5.09,6.89c-0.47,3.01-0.31,6.25-1.82,8.9
				l-2.3-1.22c-3.95-7.1-10.42-12.77-17.98-15.76c-1.93-0.76-4-1.37-6.05-1.1c-2.06,0.26-4.1,1.57-4.67,3.56
				c-0.45,1.55,0.02,3.19,0.49,4.73c1.39,4.58,2.78,9.16,4.18,13.74c0.51,1.69,1.03,3.42,0.92,5.18c-0.11,1.76-0.97,3.58-2.56,4.34
				c-2.66,1.25-5.57-0.86-8.14-2.28c-2.84-1.57-6.2-2.36-9.38-1.7c-3.17,0.65-6.09,2.88-7.11,5.96c-1.85,5.62,2.74,12.08,0.29,17.46
				c-1.23,2.69-3.92,4.35-6.47,5.85c-3.94,2.33-7.89,4.66-11.84,6.99c-1.23,0.73-2.51,1.49-3.33,2.67c-0.82,1.17-1.06,2.88-0.17,4
				c1.05,1.32,3.03,1.26,4.71,1.08c3.23-0.35,6.47-0.69,9.7-1.04c1.56-0.17,3.2-0.32,4.65,0.28c1.46,0.59,2.61,2.22,2.13,3.71
				c-0.66,2.04-3.43,2.22-5.56,1.99c-2.13-0.23-4.89-0.12-5.62,1.89c-0.8,2.17,1.86,4.19,4.17,4.14c2.3-0.05,4.46-1.23,6.76-1.4
				c2.3-0.18,5.1,1.47,4.67,3.74l0.09,0.11c-0.84,0.68-1.69,1.36-2.54,2.05c-7.15,5.78-14.6,11.96-17.93,20.53
				c-1.68,4.35-2.18,9.05-2.67,13.69c-0.19,1.82-0.24,3.99,1.22,5.09c1.5,1.13,3.62,0.42,5.34-0.33c3.35-1.45,6.69-2.91,10.04-4.36
				c-4.26,5.2-8.51,10.4-12.77,15.59c-3.74,4.58-7.48,9.15-11.11,13.82c-7.6,9.78-14.68,19.97-21.18,30.51l0.64,0.4
				c-18.42,35.66-24.8,77.39-17.89,116.92c0.77,4.4,1.71,8.8,3.47,12.9l2.69,0.48c1.62-5.69,3.23-11.38,4.85-17.08
				c0.37-1.34,0.83-2.79,1.99-3.56c1.44-0.96,3.49-0.46,4.77,0.7c1.29,1.17,1.98,2.83,2.61,4.44c9.68,24.85,12.65,51.79,20.94,77.13
				c3.81,11.63,9.32,23.61,19.74,30.03l1.13,1.21c12.71,7.62,28.08,10.71,42.74,8.57c-16.48-3.38-31.7-12.58-42.36-25.6
				c-10.66-13.01-16.68-29.76-16.74-46.58c13.18,23.3,32.64,43,55.77,56.47c7.21,4.2,15.06,7.88,23.4,8.07
				c2.37,0.05,4.76-0.18,7.08,0.32c2.31,0.5,4.61,1.92,5.33,4.17c1.18,3.65-1.99,8.35,0.64,11.15c2.37,2.53,7.04,0.56,9.84,2.61
				c2.89,2.13,1.77,6.63,0.35,9.93c-5.59,13.08-11.19,26.17-16.79,39.25l-0.53-0.13c-2.57,10.52-9.73,19.85-19.26,25
				c-12.37,6.67-27.18,6.15-41.23,6.53c-14.05,0.38-29.34,2.42-39.13,12.51c40.75-2.18,81.58-2.64,122.36-1.39
				c-4.28-1.93-8.92-4.2-10.79-8.5c-1.57-3.61-0.77-7.8,0.54-11.51c8.41-23.82,35-37.01,45.2-60.11c4.59-10.4,5.48-22.12,4.36-33.42
				c-1.12-11.31-4.17-22.32-7.2-33.27c1.13,3.76,2.26,7.51,3.39,11.27l1.58-0.48c6.35,20.45,20.3,38.49,38.57,49.67
				c5.34,3.27,11.07,6.01,15.73,10.2c8.26,7.43,12.23,18.87,12.11,29.98c-0.01,0.57-0.03,1.14-0.05,1.7"/>
			<path fill="none" stroke="#000000" stroke-miterlimit="10" d="M670.05,557.75c-4.28-0.94-8.1,1.36-12.2,1.21
				c-0.98,20.52-15.66,39.55-35.01,46.61c28.08-0.55,56.15-1.1,84.22-1.65c-0.17-4.32-0.45-8.66-0.11-13.16
				c-0.04-0.16-0.08-0.33-0.11-0.49c-6.3-0.64-12.38-2.01-17.57-5.52c-7.98-5.38-11.86-14.34-14.08-23.96
				c-1.47-1.46-3.08-2.38-5.19-3.79C670,557.37,670,557.6,670.05,557.75"/>
			<path fill="none" stroke="#000000" stroke-miterlimit="10" d="M670.05,557.75c0.32,0.07,0.63,0.14,0.95,0.25
				C670.37,558,670.14,558,670.05,557.75z"/>
			<path fill="none" stroke="#000000" stroke-miterlimit="10" d="M469.75,172.27c-0.05,0.04-0.1,0.08-0.15,0.12"/>
			<path fill="none" stroke="#000000" stroke-miterlimit="10" d="M418,268.98c-0.43,0.69-0.86,1.38-1.28,2.07"/>
			<path fill="none" stroke="#000000" stroke-miterlimit="10" d="M592.37,476.08c-0.82-2.73-1.64-5.46-2.46-8.19"/>
			<path fill="none" stroke="#000000" stroke-miterlimit="10" d="M531.99,559.36c-0.1,0.48-0.2,0.95-0.32,1.42"/>
			<path fill="none" stroke="#000000" stroke-miterlimit="10" d="M784.94,420c-0.4,0.7-0.79,1.4-1.19,2.1"/>
			<path fill="none" stroke="#000000" stroke-miterlimit="10" d="M591.49,467.41c-0.42-1.36-0.81-2.74-1.16-4.12"/>
			<path fill="none" stroke="#000000" stroke-miterlimit="10" d="M751.38,181.2c-0.05,0-0.1,0-0.15,0"/>
			<path fill="none" stroke="#000000" stroke-miterlimit="10" d="M861.82,341.1c-0.04-0.17-0.07-0.34-0.11-0.51"/>
			<path fill="none" stroke="#000000" stroke-miterlimit="10" d="M752.95,181c-0.06,0.06-0.12,0.12-0.17,0.17"/>
		</g>
	</g>
	<g display="inline">
		<path fill="#F7F7F7" d="M449.6,584.01c-5.95,0.53-12,1.09-17.54,3.33c-5.54,2.23-10.6,6.43-12.4,12.13
			c-2.44,7.74,1.93,16.51,8.78,20.87c6.84,4.36,15.52,4.96,23.53,3.62c8.01-1.34,15.59-4.43,23.29-7.01
			c23.57-7.89,48.74-11.02,73.52-9.12c4.69,0.36,9.93,0.73,13.54-2.28c3.56-2.97,4.19-8.25,3.51-12.84
			c-0.68-4.59-2.39-9.04-2.49-13.67c-0.2-9.26,5.92-17.33,11.77-24.51c5.86-7.18,12.07-15.12,12.12-24.39
			c-12.12-0.11-24.23-0.23-36.35-0.34c-6.68-0.06-13.9,0.04-19.23,4.07c-5.61,4.24-7.57,11.61-10.85,17.82
			c-6.46,12.24-18.74,20.59-31.8,25.18c-13.06,4.59-27.01,5.86-40.8,7.1"/>
		<g>
			<path d="M449.6,582.51c-9.34,0.84-19.4,1.94-26.47,8.79c-2.94,2.85-5,6.54-5.51,10.62c-0.5,3.96,0.49,8,2.38,11.48
				c4.34,7.97,12.86,11.9,21.62,12.58c9.92,0.77,19.5-2.51,28.72-5.74c9.9-3.48,19.94-6.38,30.27-8.31
				c10.24-1.91,20.65-2.95,31.07-3.11c5.16-0.08,10.32,0.05,15.47,0.4c4.3,0.29,8.91,0.92,13.03-0.7c3.84-1.52,6.29-4.89,7.05-8.9
				c0.87-4.57-0.2-9-1.25-13.44c-1.16-4.89-1.58-9.49,0.02-14.34c1.44-4.36,4.03-8.28,6.77-11.93c5.51-7.34,12.32-14.11,14.97-23.14
				c0.63-2.15,0.96-4.38,1-6.62c0.01-0.82-0.7-1.49-1.5-1.5c-12.18-0.11-24.37-0.24-36.55-0.34c-4.86-0.04-9.91-0.01-14.56,1.58
				c-4.59,1.58-8.08,4.67-10.6,8.78c-2.43,3.95-3.92,8.37-6.1,12.45c-2.19,4.11-5.08,7.79-8.44,11.01
				c-6.95,6.66-15.69,11.22-24.81,14.13c-12.29,3.92-25.19,5.09-37.97,6.23c-1.91,0.17-1.93,3.17,0,3
				c21.01-1.88,43.29-4.12,60.54-17.5c3.68-2.86,6.98-6.15,9.78-9.89c2.82-3.77,4.72-7.95,6.66-12.2c1.88-4.13,4.01-8.56,7.88-11.19
				c4.09-2.78,9.16-3.29,13.97-3.39c6.5-0.13,13.03,0.08,19.53,0.14c6.89,0.06,13.78,0.13,20.66,0.19c-0.5-0.5-1-1-1.5-1.5
				c-0.14,8.94-6.03,16.39-11.42,23.01c-5.4,6.64-11.16,13.85-12.29,22.62c-0.62,4.85,0.7,9.46,1.74,14.15
				c0.84,3.74,1.41,7.95-0.24,11.57c-1.77,3.9-5.71,5.04-9.7,5.09c-4.49,0.05-8.99-0.55-13.48-0.69
				c-19.66-0.6-39.44,1.91-58.33,7.39c-9.43,2.74-18.52,6.8-28.15,8.81c-8.46,1.76-18.11,1.61-25.42-3.54
				c-6.06-4.27-9.96-12.71-6.89-19.88c3.49-8.15,12.81-11.23,20.89-12.38c2.38-0.34,4.77-0.55,7.16-0.76
				C451.51,585.34,451.53,582.34,449.6,582.51L449.6,582.51z"/>
		</g>
	</g>
	<g display="inline">
		<path d="M420.83,598.19c1.92,4.67,6.75,6.92,11.62,6.93c3.04,0.01,6.04-0.74,8.96-1.52c3.04-0.81,6.07-1.63,9.1-2.45
			c12.25-3.29,24.5-6.58,36.76-9.87c6.12-1.64,12.23-3.28,18.35-4.93c5.17-1.39,10.34-2.82,15.37-4.7c5.02-1.88,9.91-4.18,14.28-7.3
			c4.13-2.95,7.69-6.54,10.7-10.63c6.7-9.11,10.31-20.26,11.94-31.36c0.28-1.89-2.61-2.7-2.89-0.8c-1.39,9.48-4.19,18.89-9.24,27.09
			c-2.45,3.98-5.44,7.61-8.97,10.69c-3.87,3.37-8.38,5.94-13.07,7.98c-9.8,4.27-20.48,6.55-30.77,9.31
			c-11.69,3.14-23.38,6.28-35.08,9.42c-6.51,1.75-13.01,3.65-19.56,5.23c-4.75,1.14-12.28,1.73-14.6-3.9
			C423,595.63,420.09,596.4,420.83,598.19L420.83,598.19z"/>
	</g>
	<g display="inline">
		<path d="M445.14,586.5c4.67,2.52,7.81,7.48,7.98,12.8c0.07,1.93,3.07,1.93,3,0c-0.21-6.34-3.87-12.36-9.47-15.39
			C444.96,582.99,443.44,585.58,445.14,586.5L445.14,586.5z"/>
	</g>
	<g display="inline">
		<path d="M468.69,584.36c0.19,0.12,0.37,0.25,0.55,0.38c0.09,0.07,0.18,0.13,0.27,0.2c0.2,0.15-0.26-0.22,0.07,0.05
			c0.33,0.27,0.65,0.55,0.95,0.85c0.3,0.3,0.59,0.61,0.87,0.93c0.07,0.09,0.14,0.17,0.21,0.26c0.07,0.08,0.18,0.23,0.06,0.07
			c0.14,0.18,0.27,0.36,0.39,0.54c0.48,0.7,0.89,1.44,1.25,2.22c0.18,0.39-0.06-0.16,0.03,0.07c0.04,0.1,0.08,0.21,0.12,0.31
			c0.08,0.21,0.15,0.42,0.22,0.63c0.14,0.43,0.25,0.86,0.35,1.29c0.17,0.77,1.1,1.29,1.85,1.05c0.8-0.26,1.23-1.02,1.05-1.85
			c-0.88-3.94-3.36-7.4-6.73-9.59c-0.66-0.43-1.69-0.15-2.05,0.54C467.75,583.06,467.98,583.91,468.69,584.36L468.69,584.36z"/>
	</g>
	<g display="inline">
		<path d="M480.18,580.45c0.19,0.12,0.37,0.25,0.55,0.38c0.09,0.07,0.18,0.13,0.27,0.2c0.2,0.15-0.26-0.22,0.07,0.05
			c0.33,0.27,0.65,0.55,0.95,0.85c0.3,0.3,0.59,0.61,0.87,0.93c0.07,0.09,0.14,0.17,0.21,0.26c0.07,0.08,0.18,0.23,0.06,0.07
			c0.14,0.18,0.27,0.36,0.39,0.54c0.48,0.7,0.89,1.44,1.25,2.22c0.18,0.39-0.06-0.16,0.03,0.07c0.04,0.1,0.08,0.21,0.12,0.31
			c0.08,0.21,0.15,0.42,0.22,0.63c0.14,0.43,0.25,0.86,0.35,1.29c0.17,0.77,1.1,1.29,1.85,1.05c0.8-0.26,1.23-1.02,1.05-1.85
			c-0.88-3.94-3.36-7.4-6.73-9.59c-0.66-0.43-1.69-0.16-2.05,0.54C479.25,579.15,479.47,580,480.18,580.45L480.18,580.45z"/>
	</g>
	<g display="inline">
		<path d="M491.24,577.3c1.89,1.07,3.37,2.28,4.78,4.02c0.02,0.03,0.22,0.28,0.09,0.12c0.08,0.1,0.15,0.2,0.23,0.31
			c0.15,0.2,0.29,0.41,0.43,0.62c0.29,0.44,0.55,0.89,0.79,1.36c0.11,0.22,0.22,0.45,0.32,0.67c0.2,0.42-0.05-0.13,0.05,0.12
			c0.05,0.11,0.09,0.23,0.14,0.34c0.19,0.5,0.35,1.02,0.48,1.54c0.2,0.78,1.07,1.26,1.85,1.05c0.79-0.22,1.25-1.06,1.05-1.85
			c-1.2-4.66-4.54-8.56-8.69-10.9c-0.71-0.4-1.64-0.17-2.05,0.54C490.3,575.94,490.54,576.9,491.24,577.3L491.24,577.3z"/>
	</g>
	<g display="inline">
		<path d="M503.06,571.57c0.85,0.47,1.52,1.17,2.12,1.93c0.75,0.96,1.46,1.97,2.13,2.98c1.39,2.11,2.23,4.37,2.91,6.79
			c0.52,1.86,3.41,1.07,2.89-0.8c-0.76-2.73-1.75-5.34-3.34-7.7c-1.41-2.1-2.93-4.54-5.2-5.8
			C502.88,568.05,501.37,570.64,503.06,571.57L503.06,571.57z"/>
	</g>
	<g display="inline">
		<path d="M511.85,565.04c2.46,1.73,4.38,4.13,6.29,6.42c2.06,2.46,3.76,5.05,5.33,7.86c0.94,1.69,3.53,0.18,2.59-1.51
			c-0.84-1.51-1.68-3.02-2.66-4.44c-0.96-1.4-2.04-2.72-3.13-4.02c-2.1-2.51-4.2-5-6.9-6.89c-0.66-0.47-1.67-0.12-2.05,0.54
			C510.87,563.74,511.18,564.57,511.85,565.04L511.85,565.04z"/>
	</g>
	<g display="inline">
		<path d="M519.77,556.64c5.53,4.75,9.9,10.65,12.85,17.32c0.33,0.74,1.41,0.91,2.05,0.54c0.76-0.45,0.87-1.31,0.54-2.05
			c-3.04-6.87-7.62-13.03-13.32-17.93C520.43,553.27,518.3,555.38,519.77,556.64L519.77,556.64z"/>
	</g>
	<g display="inline">
		<path d="M524.76,548.71c8.17,2.23,14.75,9.61,15.8,18.07c0.1,0.8,0.62,1.5,1.5,1.5c0.73,0,1.6-0.69,1.5-1.5
			c-1.21-9.8-8.42-18.34-18-20.96C523.7,545.31,522.9,548.2,524.76,548.71L524.76,548.71z"/>
	</g>
	<g display="inline">
		<path d="M529.32,539.22c7.25,3.46,13.36,8.96,17.52,15.84c1,1.65,3.59,0.14,2.59-1.51c-4.4-7.29-10.91-13.24-18.59-16.91
			C529.1,535.81,527.58,538.39,529.32,539.22L529.32,539.22z"/>
	</g>
	<g display="inline">
		<path d="M421.51,613.47c6.94,4.91,15.84,6.06,24.11,5.09c9.73-1.14,18.84-4.85,28.18-7.6c18.99-5.59,38.71-7.95,58.49-7.36
			c10.66,0.32,21.64,0.98,31.88-2.62c1.81-0.64,1.03-3.54-0.8-2.89c-8.96,3.15-18.5,2.92-27.86,2.62
			c-9.62-0.31-19.19-0.23-28.77,0.75c-9.68,0.99-19.29,2.72-28.7,5.2c-9.28,2.45-18.24,6.13-27.65,8.1
			c-9.21,1.92-19.43,1.74-27.37-3.88C421.45,609.76,419.94,612.36,421.51,613.47L421.51,613.47z"/>
	</g>
	<path display="inline" fill="none" stroke="#000000" stroke-miterlimit="10" d="M544.35,588.96c-0.22,1.43-0.38,4.47-1.82,5.31
		c-1.86,1.09-4.15-1.48-5.02-2.9c-2.75-4.53,0.17-9.96,4.5-12.14c4.14-2.08,10.62-2.37,13.64,1.77c2.61,3.59,1.81,9.19-1.33,12.19
		c-3.71,3.54-10.35,3.79-14.2,0.36"/>
	<path display="inline" fill="none" stroke="#000000" stroke-miterlimit="10" d="M548.11,583.8c-0.4-1.91-0.85-3.81-1.38-5.69
		c-0.81,2.01-1.21,4.15-1.52,6.29"/>
	<path display="inline" fill="none" stroke="#000000" stroke-miterlimit="10" d="M546.08,584.11c-3.07,0.1-6.15,0.37-9.16,1.03
		c5,2.79,10,5.8,13.9,10.05c-0.67-2.06-1.2-4.17-1.66-6.29"/>
	<path display="inline" fill="none" stroke="#000000" stroke-miterlimit="10" d="M543.36,594.48c-0.16,0.17-0.32,0.34-0.47,0.52
		c5.27-2.89,8.34-8.55,13.74-11.26c-3.07,0.23-6.15,0.24-9.23,0.32"/>
</g>
<g id="Capa_2_copia_2" display="none">
	<g id="XMLID_00000001625233202008381740000014118748938493032629_" display="inline">
		<g>
			<path fill="#EAD039" d="M861.71,340.59l0.06-0.01c5.95,17.95,3.58,37.65-1.38,55.9c-4.97,18.25-12.45,35.77-16.81,54.17
				c-3.43,14.46-4.43,31.12,4.79,42.76c-9.75-4.33-16.08-14.39-18.19-24.85c-2.12-10.46-0.56-21.32,1.89-31.7
				c2.45-10.39,5.78-20.59,7.26-31.16c2.88-20.5-1.53-41.95-12.28-59.64c2.25,36.79-2.91,74.01-15.08,108.8
				c-5.06,14.47-11.34,28.59-14.57,43.58c-3.24,14.98-3.15,31.33,4.08,44.85c-11.64-7.94-16.88-22.73-17.46-36.8
				c-0.57-14.07,2.77-27.96,4.75-41.9c1.98-13.95,2.49-28.72-3.34-41.54l-1.68-0.95c-7.37,13.04-14.66,26.13-21.95,39.22
				c-4.34,7.8-8.68,15.6-13.03,23.4c0.81-17.47,1.61-34.94,2.42-52.4c-7.68,20.34-18.39,39.53-31.68,56.74
				c6.22-29.76,6.58-60.74,1.04-90.63c-2.63,36.74-15.48,72.69-36.72,102.78c-0.16-8.81-0.31-17.62-0.47-26.43
				c-4.22-4.25-12.11-1.42-14.99,3.83c-2.87,5.25-2.24,11.64-1.53,17.59c1.98,16.63,3.97,33.27,5.95,49.91
				c1.72,14.37,4.48,30.55,16.48,38.64c8.99,6.08,20.65,5.76,31.49,6.3c10.84,0.53,22.97,2.96,28.91,12.04
				c-42.27,0.83-84.55,1.65-126.83,2.48c19.89-7.26,34.84-27.15,35.06-48.31c0.12-11.11-3.85-22.55-12.11-29.98
				c-4.66-4.19-10.39-6.93-15.73-10.2c-18.27-11.18-32.22-29.22-38.57-49.67l-1.58,0.48c-1.13-3.76-2.26-7.51-3.39-11.27
				c3.03,10.95,6.08,21.96,7.2,33.27c1.12,11.3,0.23,23.02-4.36,33.42c-10.2,23.1-36.79,36.29-45.2,60.11
				c-1.31,3.71-2.11,7.9-0.54,11.51c1.87,4.3,6.51,6.57,10.79,8.5c-40.78-1.25-81.61-0.79-122.36,1.39
				c9.79-10.09,25.08-12.13,39.13-12.51c14.05-0.38,28.86,0.14,41.23-6.53c9.53-5.15,16.69-14.48,19.26-25l0.53,0.13
				c5.6-13.08,11.2-26.17,16.79-39.25c1.42-3.3,2.54-7.8-0.35-9.93c-2.8-2.05-7.47-0.08-9.84-2.61c-2.63-2.8,0.54-7.5-0.64-11.15
				c-0.72-2.25-3.02-3.67-5.33-4.17c-2.32-0.5-4.71-0.27-7.08-0.32c-8.34-0.19-16.19-3.87-23.4-8.07
				c-23.13-13.47-42.59-33.17-55.77-56.47c0.06,16.82,6.08,33.57,16.74,46.58c10.66,13.02,25.88,22.22,42.36,25.6
				c-14.66,2.14-30.03-0.95-42.74-8.57l-1.13-1.21c-10.42-6.42-15.93-18.4-19.74-30.03c-8.29-25.34-11.26-52.28-20.94-77.13
				c-0.63-1.61-1.32-3.27-2.61-4.44c-1.28-1.16-3.33-1.66-4.77-0.7c-1.16,0.77-1.62,2.22-1.99,3.56c-1.62,5.7-3.23,11.39-4.85,17.08
				l-2.69-0.48c-1.76-4.1-2.7-8.5-3.47-12.9c-6.91-39.53-0.53-81.26,17.89-116.92l-0.64-0.4c6.5-10.54,13.58-20.73,21.18-30.51
				c3.63-4.67,7.37-9.24,11.11-13.82c4.26-5.19,8.51-10.39,12.77-15.59c-3.35,1.45-6.69,2.91-10.04,4.36
				c-1.72,0.75-3.84,1.46-5.34,0.33c-1.46-1.1-1.41-3.27-1.22-5.09c0.49-4.64,0.99-9.34,2.67-13.69
				c3.33-8.57,10.78-14.75,17.93-20.53c0.85-0.69,1.7-1.37,2.54-2.05l-0.09-0.11c0.43-2.27-2.37-3.92-4.67-3.74
				c-2.3,0.17-4.46,1.35-6.76,1.4c-2.31,0.05-4.97-1.97-4.17-4.14c0.73-2.01,3.49-2.12,5.62-1.89c2.13,0.23,4.9,0.05,5.56-1.99
				c0.48-1.49-0.67-3.12-2.13-3.71c-1.45-0.6-3.09-0.45-4.65-0.28c-3.23,0.35-6.47,0.69-9.7,1.04c-1.68,0.18-3.66,0.24-4.71-1.08
				c-0.89-1.12-0.65-2.83,0.17-4c0.82-1.18,2.1-1.94,3.33-2.67c3.95-2.33,7.9-4.66,11.84-6.99c2.55-1.5,5.24-3.16,6.47-5.85
				c2.45-5.38-2.14-11.84-0.29-17.46c1.02-3.08,3.94-5.31,7.11-5.96c3.18-0.66,6.54,0.13,9.38,1.7c2.57,1.42,5.48,3.53,8.14,2.28
				c1.59-0.76,2.45-2.58,2.56-4.34c0.11-1.76-0.41-3.49-0.92-5.18c-1.4-4.58-2.79-9.16-4.18-13.74c-0.47-1.54-0.94-3.18-0.49-4.73
				c0.57-1.99,2.61-3.3,4.67-3.56c2.05-0.27,4.12,0.34,6.05,1.1c7.56,2.99,14.03,8.66,17.98,15.76l2.3,1.22
				c1.51-2.65,1.35-5.89,1.82-8.9c0.47-3.02,2.09-6.35,5.09-6.89c2.47-0.44,4.8,1.2,6.62,2.91c5.27,4.93,9.17,11.3,11.19,18.22
				c6.47-4.9,11.72-11.39,15.16-18.74c0.98-2.09,1.83-4.28,3.27-6.09c1.43-1.81,3.61-3.22,5.91-3.05c2.37,0.18,4.36,2.01,5.41,4.15
				s1.32,4.56,1.58,6.92c0.64,5.82,1.28,11.63,1.91,17.44c7.59-1.06,14.7-5.17,19.4-11.21c4.39,17.14,0.12,36.27-11.13,49.93
				c-3.01,3.66-6.71,7.06-11.32,8.18c-3.42,0.83-7.21,0.36-10.33,2.01c-3.41,1.8-5.19,5.8-5.38,9.66
				c-0.18,3.85,0.96,7.63,2.09,11.32l0.9,0.01c4.96,24.18,3.91,49.57-3.05,73.26c-3.08,10.5-7.31,20.7-9.39,31.44
				c-2.08,10.75-1.81,22.45,3.67,31.92c5.51,9.52,15.46,15.52,25.4,20.23c9.94,4.7,20.46,8.63,28.92,15.65
				c-6.44-42.17,6.13-86.87,33.6-119.51c27.47-32.63,69.37-52.65,112.02-53.51v0.38c20.51-0.1,40.73,7.42,57.18,19.66
				c16.5,12.27,29.32,29.11,38.27,47.61c6.07,12.54,10.44,25.89,12.96,39.59c-10.81-16.99-22.13-33.97-37.2-47.31
				c-15.07-13.34-34.49-22.86-54.6-22.17c10.36,1.43,19.47,7.5,27.6,14.08C829.03,259.71,852.8,298.51,861.71,340.59z"/>
		</g>
		<g>
			<path fill="none" stroke="#000000" stroke-miterlimit="10" d="M861.71,340.59l0.06-0.01c5.95,17.95,3.58,37.65-1.38,55.9
				c-4.97,18.25-12.45,35.77-16.81,54.17c-3.43,14.46-4.43,31.12,4.79,42.76c-9.75-4.33-16.08-14.39-18.19-24.85
				c-2.12-10.46-0.56-21.32,1.89-31.7c2.45-10.39,5.78-20.59,7.26-31.16c2.88-20.5-1.53-41.95-12.28-59.64
				c2.25,36.79-2.91,74.01-15.08,108.8c-5.06,14.47-11.34,28.59-14.57,43.58c-3.24,14.98-3.15,31.33,4.08,44.85
				c-11.64-7.94-16.88-22.73-17.46-36.8c-0.57-14.07,2.77-27.96,4.75-41.9c1.98-13.95,2.49-28.72-3.34-41.54l-1.68-0.95
				c-7.37,13.04-14.66,26.13-21.95,39.22c-4.34,7.8-8.68,15.6-13.03,23.4c0.81-17.47,1.61-34.94,2.42-52.4
				c-7.68,20.34-18.39,39.53-31.68,56.74c6.22-29.76,6.58-60.74,1.04-90.63c-2.63,36.74-15.48,72.69-36.72,102.78
				c-0.16-8.81-0.31-17.62-0.47-26.43c-4.22-4.25-12.11-1.42-14.99,3.83c-2.87,5.25-2.24,11.64-1.53,17.59
				c1.98,16.63,3.97,33.27,5.95,49.91c1.72,14.37,4.48,30.55,16.48,38.64c8.99,6.08,20.65,5.76,31.49,6.3
				c10.84,0.53,22.97,2.96,28.91,12.04c-42.27,0.83-84.55,1.65-126.83,2.48c19.89-7.26,34.84-27.15,35.06-48.31
				c0.12-11.11-3.85-22.55-12.11-29.98c-4.66-4.19-10.39-6.93-15.73-10.2c-18.27-11.18-32.22-29.22-38.57-49.67l-1.58,0.48
				c-1.13-3.76-2.26-7.51-3.39-11.27c3.03,10.95,6.08,21.96,7.2,33.27c1.12,11.3,0.23,23.02-4.36,33.42
				c-10.2,23.1-36.79,36.29-45.2,60.11c-1.31,3.71-2.11,7.9-0.54,11.51c1.87,4.3,6.51,6.57,10.79,8.5
				c-40.78-1.25-81.61-0.79-122.36,1.39c9.79-10.09,25.08-12.13,39.13-12.51c14.05-0.38,28.86,0.14,41.23-6.53
				c9.53-5.15,16.69-14.48,19.26-25l0.53,0.13c5.6-13.08,11.2-26.17,16.79-39.25c1.42-3.3,2.54-7.8-0.35-9.93
				c-2.8-2.05-7.47-0.08-9.84-2.61c-2.63-2.8,0.54-7.5-0.64-11.15c-0.72-2.25-3.02-3.67-5.33-4.17c-2.32-0.5-4.71-0.27-7.08-0.32
				c-8.34-0.19-16.19-3.87-23.4-8.07c-23.13-13.47-42.59-33.17-55.77-56.47c0.06,16.82,6.08,33.57,16.74,46.58
				c10.66,13.02,25.88,22.22,42.36,25.6c-14.66,2.14-30.03-0.95-42.74-8.57l-1.13-1.21c-10.42-6.42-15.93-18.4-19.74-30.03
				c-8.29-25.34-11.26-52.28-20.94-77.13c-0.63-1.61-1.32-3.27-2.61-4.44c-1.28-1.16-3.33-1.66-4.77-0.7
				c-1.16,0.77-1.62,2.22-1.99,3.56c-1.62,5.7-3.23,11.39-4.85,17.08l-2.69-0.48c-1.76-4.1-2.7-8.5-3.47-12.9
				c-6.91-39.53-0.53-81.26,17.89-116.92l-0.64-0.4c6.5-10.54,13.58-20.73,21.18-30.51c3.63-4.67,7.37-9.24,11.11-13.82
				c4.26-5.19,8.51-10.39,12.77-15.59c-3.35,1.45-6.69,2.91-10.04,4.36c-1.72,0.75-3.84,1.46-5.34,0.33
				c-1.46-1.1-1.41-3.27-1.22-5.09c0.49-4.64,0.99-9.34,2.67-13.69c3.33-8.57,10.78-14.75,17.93-20.53c0.85-0.69,1.7-1.37,2.54-2.05
				l-0.09-0.11c0.43-2.27-2.37-3.92-4.67-3.74c-2.3,0.17-4.46,1.35-6.76,1.4c-2.31,0.05-4.97-1.97-4.17-4.14
				c0.73-2.01,3.49-2.12,5.62-1.89c2.13,0.23,4.9,0.05,5.56-1.99c0.48-1.49-0.67-3.12-2.13-3.71c-1.45-0.6-3.09-0.45-4.65-0.28
				c-3.23,0.35-6.47,0.69-9.7,1.04c-1.68,0.18-3.66,0.24-4.71-1.08c-0.89-1.12-0.65-2.83,0.17-4c0.82-1.18,2.1-1.94,3.33-2.67
				c3.95-2.33,7.9-4.66,11.84-6.99c2.55-1.5,5.24-3.16,6.47-5.85c2.45-5.38-2.14-11.84-0.29-17.46c1.02-3.08,3.94-5.31,7.11-5.96
				c3.18-0.66,6.54,0.13,9.38,1.7c2.57,1.42,5.48,3.53,8.14,2.28c1.59-0.76,2.45-2.58,2.56-4.34c0.11-1.76-0.41-3.49-0.92-5.18
				c-1.4-4.58-2.79-9.16-4.18-13.74c-0.47-1.54-0.94-3.18-0.49-4.73c0.57-1.99,2.61-3.3,4.67-3.56c2.05-0.27,4.12,0.34,6.05,1.1
				c7.56,2.99,14.03,8.66,17.98,15.76l2.3,1.22c1.51-2.65,1.35-5.89,1.82-8.9c0.47-3.02,2.09-6.35,5.09-6.89
				c2.47-0.44,4.8,1.2,6.62,2.91c5.27,4.93,9.17,11.3,11.19,18.22c6.47-4.9,11.72-11.39,15.16-18.74c0.98-2.09,1.83-4.28,3.27-6.09
				c1.43-1.81,3.61-3.22,5.91-3.05c2.37,0.18,4.36,2.01,5.41,4.15s1.32,4.56,1.58,6.92c0.64,5.82,1.28,11.63,1.91,17.44
				c7.59-1.06,14.7-5.17,19.4-11.21c4.39,17.14,0.12,36.27-11.13,49.93c-3.01,3.66-6.71,7.06-11.32,8.18
				c-3.42,0.83-7.21,0.36-10.33,2.01c-3.41,1.8-5.19,5.8-5.38,9.66c-0.18,3.85,0.96,7.63,2.09,11.32l0.9,0.01
				c4.96,24.18,3.91,49.57-3.05,73.26c-3.08,10.5-7.31,20.7-9.39,31.44c-2.08,10.75-1.81,22.45,3.67,31.92
				c5.51,9.52,15.46,15.52,25.4,20.23c9.94,4.7,20.46,8.63,28.92,15.65c-6.44-42.17,6.13-86.87,33.6-119.51
				c27.47-32.63,69.37-52.65,112.02-53.51v0.38c20.51-0.1,40.73,7.42,57.18,19.66c16.5,12.27,29.32,29.11,38.27,47.61
				c6.07,12.54,10.44,25.89,12.96,39.59c-10.81-16.99-22.13-33.97-37.2-47.31c-15.07-13.34-34.49-22.86-54.6-22.17
				c10.36,1.43,19.47,7.5,27.6,14.08C829.03,259.71,852.8,298.51,861.71,340.59z"/>
			<path fill="none" stroke="#000000" stroke-miterlimit="10" d="M469.75,172.27c-0.05,0.04-0.1,0.08-0.15,0.12"/>
			<path fill="none" stroke="#000000" stroke-miterlimit="10" d="M418,268.98c-0.43,0.69-0.86,1.38-1.28,2.07"/>
			<path fill="none" stroke="#000000" stroke-miterlimit="10" d="M592.37,476.08c-0.82-2.73-1.64-5.46-2.46-8.19"/>
			<path fill="none" stroke="#000000" stroke-miterlimit="10" d="M531.99,559.36c-0.1,0.48-0.2,0.95-0.32,1.42"/>
			<path fill="none" stroke="#000000" stroke-miterlimit="10" d="M784.94,420c-0.4,0.7-0.79,1.4-1.19,2.1"/>
			<path fill="none" stroke="#000000" stroke-miterlimit="10" d="M591.49,467.41c-0.42-1.36-0.81-2.74-1.16-4.12"/>
			<path fill="none" stroke="#000000" stroke-miterlimit="10" d="M751.38,181.2c-0.05,0-0.1,0-0.15,0"/>
			<path fill="none" stroke="#000000" stroke-miterlimit="10" d="M861.82,341.1c-0.04-0.17-0.07-0.34-0.11-0.51"/>
			<path fill="none" stroke="#000000" stroke-miterlimit="10" d="M752.95,181c-0.06,0.06-0.12,0.12-0.17,0.17"/>
		</g>
	</g>
	<g display="inline">
		<path d="M449.6,582.51c-9.34,0.84-19.4,1.94-26.47,8.79c-2.94,2.85-5,6.54-5.51,10.62c-0.5,3.96,0.49,8,2.38,11.48
			c4.34,7.97,12.86,11.9,21.62,12.58c9.92,0.77,19.5-2.51,28.72-5.74c9.9-3.48,19.94-6.38,30.27-8.31
			c10.24-1.91,20.65-2.95,31.07-3.11c5.16-0.08,10.32,0.05,15.47,0.4c4.3,0.29,8.91,0.92,13.03-0.7c3.84-1.52,6.29-4.89,7.05-8.9
			c0.87-4.57-0.2-9-1.25-13.44c-1.16-4.89-1.58-9.49,0.02-14.34c1.44-4.36,4.03-8.28,6.77-11.93c5.51-7.34,12.32-14.11,14.97-23.14
			c0.63-2.15,0.96-4.38,1-6.62c0.01-0.82-0.7-1.49-1.5-1.5c-12.18-0.11-24.37-0.24-36.55-0.34c-4.86-0.04-9.91-0.01-14.56,1.58
			c-4.59,1.58-8.08,4.67-10.6,8.78c-2.43,3.95-3.92,8.37-6.1,12.45c-2.19,4.11-5.08,7.79-8.44,11.01
			c-6.95,6.66-15.69,11.22-24.81,14.13c-12.29,3.92-25.19,5.09-37.97,6.23c-1.91,0.17-1.93,3.17,0,3
			c21.01-1.88,43.29-4.12,60.54-17.5c3.68-2.86,6.98-6.15,9.78-9.89c2.82-3.77,4.72-7.95,6.66-12.2c1.88-4.13,4.01-8.56,7.88-11.19
			c4.09-2.78,9.16-3.29,13.97-3.39c6.5-0.13,13.03,0.08,19.53,0.14c6.89,0.06,13.78,0.13,20.66,0.19c-0.5-0.5-1-1-1.5-1.5
			c-0.14,8.94-6.03,16.39-11.42,23.01c-5.4,6.64-11.16,13.85-12.29,22.62c-0.62,4.85,0.7,9.46,1.74,14.15
			c0.84,3.74,1.41,7.95-0.24,11.57c-1.77,3.9-5.71,5.04-9.7,5.09c-4.49,0.05-8.99-0.55-13.48-0.69c-19.66-0.6-39.44,1.91-58.33,7.39
			c-9.43,2.74-18.52,6.8-28.15,8.81c-8.46,1.76-18.11,1.61-25.42-3.54c-6.06-4.27-9.96-12.71-6.89-19.88
			c3.49-8.15,12.81-11.23,20.89-12.38c2.38-0.34,4.77-0.55,7.16-0.76C451.51,585.34,451.53,582.34,449.6,582.51L449.6,582.51z"/>
	</g>
	<g display="inline">
		<path d="M420.83,598.19c1.92,4.67,6.75,6.92,11.62,6.93c3.04,0.01,6.04-0.74,8.96-1.52c3.04-0.81,6.07-1.63,9.1-2.45
			c12.25-3.29,24.5-6.58,36.76-9.87c6.12-1.64,12.23-3.28,18.35-4.93c5.17-1.39,10.34-2.82,15.37-4.7c5.02-1.88,9.91-4.18,14.28-7.3
			c4.13-2.95,7.69-6.54,10.7-10.63c6.7-9.11,10.31-20.26,11.94-31.36c0.28-1.89-2.61-2.7-2.89-0.8c-1.39,9.48-4.19,18.89-9.24,27.09
			c-2.45,3.98-5.44,7.61-8.97,10.69c-3.87,3.37-8.38,5.94-13.07,7.98c-9.8,4.27-20.48,6.55-30.77,9.31
			c-11.69,3.14-23.38,6.28-35.08,9.42c-6.51,1.75-13.01,3.65-19.56,5.23c-4.75,1.14-12.28,1.73-14.6-3.9
			C423,595.63,420.09,596.4,420.83,598.19L420.83,598.19z"/>
	</g>
	<g display="inline">
		<path d="M445.14,586.5c4.67,2.52,7.81,7.48,7.98,12.8c0.07,1.93,3.07,1.93,3,0c-0.21-6.34-3.87-12.36-9.47-15.39
			C444.96,582.99,443.44,585.58,445.14,586.5L445.14,586.5z"/>
	</g>
	<g display="inline">
		<path d="M468.69,584.36c0.19,0.12,0.37,0.25,0.55,0.38c0.09,0.07,0.18,0.13,0.27,0.2c0.2,0.15-0.26-0.22,0.07,0.05
			c0.33,0.27,0.65,0.55,0.95,0.85c0.3,0.3,0.59,0.61,0.87,0.93c0.07,0.09,0.14,0.17,0.21,0.26c0.07,0.08,0.18,0.23,0.06,0.07
			c0.14,0.18,0.27,0.36,0.39,0.54c0.48,0.7,0.89,1.44,1.25,2.22c0.18,0.39-0.06-0.16,0.03,0.07c0.04,0.1,0.08,0.21,0.12,0.31
			c0.08,0.21,0.15,0.42,0.22,0.63c0.14,0.43,0.25,0.86,0.35,1.29c0.17,0.77,1.1,1.29,1.85,1.05c0.8-0.26,1.23-1.02,1.05-1.85
			c-0.88-3.94-3.36-7.4-6.73-9.59c-0.66-0.43-1.69-0.15-2.05,0.54C467.75,583.06,467.98,583.91,468.69,584.36L468.69,584.36z"/>
	</g>
	<g display="inline">
		<path d="M480.18,580.45c0.19,0.12,0.37,0.25,0.55,0.38c0.09,0.07,0.18,0.13,0.27,0.2c0.2,0.15-0.26-0.22,0.07,0.05
			c0.33,0.27,0.65,0.55,0.95,0.85c0.3,0.3,0.59,0.61,0.87,0.93c0.07,0.09,0.14,0.17,0.21,0.26c0.07,0.08,0.18,0.23,0.06,0.07
			c0.14,0.18,0.27,0.36,0.39,0.54c0.48,0.7,0.89,1.44,1.25,2.22c0.18,0.39-0.06-0.16,0.03,0.07c0.04,0.1,0.08,0.21,0.12,0.31
			c0.08,0.21,0.15,0.42,0.22,0.63c0.14,0.43,0.25,0.86,0.35,1.29c0.17,0.77,1.1,1.29,1.85,1.05c0.8-0.26,1.23-1.02,1.05-1.85
			c-0.88-3.94-3.36-7.4-6.73-9.59c-0.66-0.43-1.69-0.16-2.05,0.54C479.25,579.15,479.47,580,480.18,580.45L480.18,580.45z"/>
	</g>
	<g display="inline">
		<path d="M491.24,577.3c1.89,1.07,3.37,2.28,4.78,4.02c0.02,0.03,0.22,0.28,0.09,0.12c0.08,0.1,0.15,0.2,0.23,0.31
			c0.15,0.2,0.29,0.41,0.43,0.62c0.29,0.44,0.55,0.89,0.79,1.36c0.11,0.22,0.22,0.45,0.32,0.67c0.2,0.42-0.05-0.13,0.05,0.12
			c0.05,0.11,0.09,0.23,0.14,0.34c0.19,0.5,0.35,1.02,0.48,1.54c0.2,0.78,1.07,1.26,1.85,1.05c0.79-0.22,1.25-1.06,1.05-1.85
			c-1.2-4.66-4.54-8.56-8.69-10.9c-0.71-0.4-1.64-0.17-2.05,0.54C490.3,575.94,490.54,576.9,491.24,577.3L491.24,577.3z"/>
	</g>
	<g display="inline">
		<path d="M503.06,571.57c0.85,0.47,1.52,1.17,2.12,1.93c0.75,0.96,1.46,1.97,2.13,2.98c1.39,2.11,2.23,4.37,2.91,6.79
			c0.52,1.86,3.41,1.07,2.89-0.8c-0.76-2.73-1.75-5.34-3.34-7.7c-1.41-2.1-2.93-4.54-5.2-5.8
			C502.88,568.05,501.37,570.64,503.06,571.57L503.06,571.57z"/>
	</g>
	<g display="inline">
		<path d="M511.85,565.04c2.46,1.73,4.38,4.13,6.29,6.42c2.06,2.46,3.76,5.05,5.33,7.86c0.94,1.69,3.53,0.18,2.59-1.51
			c-0.84-1.51-1.68-3.02-2.66-4.44c-0.96-1.4-2.04-2.72-3.13-4.02c-2.1-2.51-4.2-5-6.9-6.89c-0.66-0.47-1.67-0.12-2.05,0.54
			C510.87,563.74,511.18,564.57,511.85,565.04L511.85,565.04z"/>
	</g>
	<g display="inline">
		<path d="M519.77,556.64c5.53,4.75,9.9,10.65,12.85,17.32c0.33,0.74,1.41,0.91,2.05,0.54c0.76-0.45,0.87-1.31,0.54-2.05
			c-3.04-6.87-7.62-13.03-13.32-17.93C520.43,553.27,518.3,555.38,519.77,556.64L519.77,556.64z"/>
	</g>
	<g display="inline">
		<path d="M524.76,548.71c8.17,2.23,14.75,9.61,15.8,18.07c0.1,0.8,0.62,1.5,1.5,1.5c0.73,0,1.6-0.69,1.5-1.5
			c-1.21-9.8-8.42-18.34-18-20.96C523.7,545.31,522.9,548.2,524.76,548.71L524.76,548.71z"/>
	</g>
	<g display="inline">
		<path d="M529.32,539.22c7.25,3.46,13.36,8.96,17.52,15.84c1,1.65,3.59,0.14,2.59-1.51c-4.4-7.29-10.91-13.24-18.59-16.91
			C529.1,535.81,527.58,538.39,529.32,539.22L529.32,539.22z"/>
	</g>
	<g display="inline">
		<path d="M421.51,613.47c6.94,4.91,15.84,6.06,24.11,5.09c9.73-1.14,18.84-4.85,28.18-7.6c18.99-5.59,38.71-7.95,58.49-7.36
			c10.66,0.32,21.64,0.98,31.88-2.62c1.81-0.64,1.03-3.54-0.8-2.89c-8.96,3.15-18.5,2.92-27.86,2.62
			c-9.62-0.31-19.19-0.23-28.77,0.75c-9.68,0.99-19.29,2.72-28.7,5.2c-9.28,2.45-18.24,6.13-27.65,8.1
			c-9.21,1.92-19.43,1.74-27.37-3.88C421.45,609.76,419.94,612.36,421.51,613.47L421.51,613.47z"/>
	</g>
</g>
<g id="Capa_2_copia" display="none">
	<g display="inline">
		<path fill="#DD0A0A" d="M341.67,450.8c-1.77-4.2-2.73-8.64-3.51-13.11c-0.73-4.2-1.3-8.42-1.73-12.66
			c-0.85-8.52-1.1-17.1-0.76-25.66c0.68-17.14,3.75-34.16,9.07-50.46c3.01-9.21,6.75-18.16,11.18-26.77
			c0.88-1.71-1.71-3.23-2.59-1.51c-8.01,15.55-13.8,32.21-17.19,49.36c-3.37,17.08-4.43,34.63-2.99,51.98
			c0.4,4.88,1,9.74,1.78,14.57c0.83,5.12,1.81,10.26,3.83,15.06c0.32,0.75,0.99,1.27,1.85,1.05
			C341.33,452.46,341.98,451.55,341.67,450.8L341.67,450.8z"/>
	</g>
	<g display="inline">
		<path fill="#DD0A0A" d="M344.36,452.08c1.48-5.22,2.96-10.44,4.44-15.65c0.44-1.55,0.81-4.64,3.03-4.37
			c2.18,0.26,3.17,2.76,3.86,4.53c3.7,9.44,6.4,19.25,8.8,29.09c2.41,9.88,4.5,19.83,6.95,29.69c2.3,9.27,4.81,18.59,8.56,27.4
			c3.67,8.63,8.95,16.81,17.05,21.87c1.64,1.03,3.15-1.57,1.51-2.59c-7.49-4.68-12.3-12.31-15.74-20.26
			c-3.95-9.13-6.46-18.93-8.82-28.57c-2.53-10.32-4.7-20.73-7.29-31.04c-1.3-5.18-2.7-10.33-4.3-15.43c-0.79-2.51-1.63-5-2.52-7.47
			c-0.82-2.25-1.55-4.7-2.82-6.75c-1.23-1.98-3.29-3.58-5.73-3.48c-2.49,0.1-3.97,1.96-4.72,4.16c-0.99,2.89-1.7,5.9-2.53,8.84
			c-0.87,3.08-1.75,6.17-2.62,9.25C340.94,453.14,343.83,453.94,344.36,452.08L344.36,452.08z"/>
	</g>
	<g display="inline">
		<path fill="#DD0A0A" d="M354.01,323.81c5.11-8.39,10.56-16.56,16.36-24.49c5.94-8.13,12.32-15.91,18.69-23.69
			c3.68-4.5,7.37-9,11.05-13.5c1.11-1.35-0.24-3.04-1.82-2.36c-2.21,0.96-4.41,1.92-6.62,2.88c-1.79,0.78-3.96,2.16-5.97,2.2
			c-1.94,0.04-1.91-2.04-1.82-3.48c0.15-2.19,0.44-4.39,0.78-6.56c0.67-4.21,1.89-8.2,4.14-11.84c2-3.23,4.57-6.05,7.33-8.65
			c3.38-3.19,7.05-6.06,10.67-8.98c1.5-1.21-0.63-3.32-2.12-2.12c-6.94,5.61-14.44,11.21-18.97,19.08
			c-2.48,4.32-3.62,9.06-4.26,13.96c-0.46,3.52-2.01,9.88,2.62,11.36c2.42,0.77,4.9-0.55,7.06-1.49c2.89-1.26,5.78-2.51,8.67-3.77
			c-0.61-0.79-1.21-1.57-1.82-2.36c-12.86,15.7-26.01,31.2-37.4,48.02c-3.17,4.68-6.23,9.45-9.17,14.28
			C350.42,323.95,353.01,325.46,354.01,323.81L354.01,323.81z"/>
	</g>
	<g display="inline">
		<path fill="#DD0A0A" d="M398.19,545.84c13.16,7.83,28.76,10.88,43.9,8.72c1.48-0.21,1.38-2.6,0-2.89
			c-12.34-2.57-23.96-8.32-33.43-16.65c-9.77-8.59-17.06-19.76-21.04-32.15c-2.28-7.09-3.48-14.48-3.53-21.93
			c-0.93,0.25-1.86,0.5-2.8,0.76c12.34,21.74,30.02,40.37,51.09,53.82c5.47,3.49,11.15,6.79,17.26,9.03
			c3.07,1.12,6.24,1.91,9.49,2.26c3.37,0.37,7.09-0.4,10.33,0.73c1.17,0.41,2.35,1.13,2.98,2.24c0.68,1.19,0.53,2.63,0.34,3.93
			c-0.37,2.52-1.17,5.33,0.31,7.66c1.5,2.36,4.25,2.64,6.8,2.76c2.37,0.11,4.88,0.46,5.04,3.33c0.18,3.23-1.67,6.47-2.9,9.33
			c-1.66,3.88-3.32,7.76-4.98,11.64c-3.38,7.91-6.77,15.82-10.15,23.74c-0.75,1.76,1.83,3.29,2.59,1.51
			c3.06-7.15,6.12-14.3,9.18-21.45c1.5-3.5,2.99-7,4.49-10.5c1.39-3.25,3.06-6.51,4.1-9.89c0.73-2.38,1.12-5.2-0.13-7.48
			c-1.33-2.43-3.99-3.05-6.56-3.2c-2.32-0.13-5.31-0.01-5.35-3.08c-0.04-2.76,1.18-5.4,0.48-8.17c-0.7-2.75-3.18-4.59-5.79-5.36
			c-3.34-0.99-6.93-0.36-10.35-0.68c-6.9-0.64-13.37-3.7-19.32-7.08c-11.02-6.26-21.2-13.98-30.29-22.82
			c-10.24-9.97-19.04-21.34-26.09-33.77c-0.73-1.29-2.81-0.72-2.8,0.76c0.09,13.87,4.05,27.66,11.34,39.47
			c6.92,11.21,16.83,20.45,28.42,26.69c6.41,3.45,13.32,5.98,20.45,7.47c0-0.96,0-1.93,0-2.89c-14.32,2.04-29.18-1.03-41.59-8.42
			C398.04,542.26,396.53,544.85,398.19,545.84L398.19,545.84z"/>
	</g>
	<g display="inline">
		<path fill="#DD0A0A" d="M468.81,613.32c1.93,0,1.93-3,0-3C466.88,610.32,466.87,613.32,468.81,613.32L468.81,613.32z"/>
	</g>
	<g display="inline">
		<path fill="#DD0A0A" d="M468.46,614.36c1.93,0,1.93-3,0-3C466.53,611.36,466.53,614.36,468.46,614.36L468.46,614.36z"/>
	</g>
	<g display="inline">
		<path fill="#DD0A0A" d="M469.15,611.59c1.93,0,1.93-3,0-3C467.22,608.59,467.22,611.59,469.15,611.59L469.15,611.59z"/>
	</g>
	<g display="inline">
		<path fill="#DD0A0A" d="M469.32,612.11c1.93,0,1.93-3,0-3C467.39,609.11,467.39,612.11,469.32,612.11L469.32,612.11z"/>
	</g>
	<g display="inline">
		<path fill="#DD0A0A" d="M469.67,611.94c1.93,0,1.93-3,0-3C467.74,608.94,467.74,611.94,469.67,611.94L469.67,611.94z"/>
	</g>
	<g display="inline">
		<path fill="#DD0A0A" d="M468.98,611.59c1.93,0,1.93-3,0-3C467.05,608.59,467.04,611.59,468.98,611.59L468.98,611.59z"/>
	</g>
	<g display="inline">
		<path fill="#DD0A0A" d="M466.54,610.96c-1.49,7.17-5.04,13.78-10.19,18.98c-5.5,5.56-12.51,8.96-20.09,10.68
			c-15.65,3.55-31.95,0.78-47.64,4.13c-8.04,1.72-15.8,5.07-21.63,11c-0.87,0.89-0.27,2.63,1.06,2.56
			c31.8-1.69,63.65-2.35,95.5-1.96c8.96,0.11,17.91,0.3,26.86,0.57c1.41,0.04,2.14-2.17,0.76-2.8c-4.67-2.11-10.31-4.77-10.86-10.54
			c-0.5-5.16,2.16-10.63,4.6-15.03c4.74-8.54,11.59-15.62,18.37-22.54c6.78-6.92,13.72-13.82,19.02-21.98
			c6.36-9.79,9.23-21.11,9.35-32.73c0.15-14.71-3.79-29.04-7.69-43.09c-0.96,0.27-1.93,0.53-2.89,0.8
			c1.95,6.49,3.9,12.97,5.86,19.46c0.55,1.84,3.45,1.06,2.89-0.8c-1.95-6.49-3.9-12.97-5.86-19.46c-0.55-1.84-3.41-1.07-2.89,0.8
			c3.55,12.8,7.17,25.78,7.55,39.14c0.34,11.93-2.1,23.63-8.54,33.78c-10.64,16.76-28.35,27.87-37.94,45.41
			c-2.79,5.1-5.61,11.34-4.72,17.28c0.97,6.43,6.83,9.66,12.22,12.09c0.25-0.93,0.5-1.86,0.76-2.8c-31.83-0.97-63.69-0.91-95.52,0.2
			c-8.95,0.31-17.9,0.71-26.84,1.18c0.35,0.85,0.71,1.71,1.06,2.56c10.93-11.13,27.76-11.88,42.39-12.17
			c8.4-0.17,16.9-0.29,25.14-2.1c7.71-1.69,14.95-5.06,20.75-10.49c6.06-5.68,10.35-13.23,12.04-21.36
			C469.83,609.87,466.93,609.07,466.54,610.96L466.54,610.96z"/>
	</g>
	<g display="inline">
		<path fill="#DD0A0A" d="M524.88,515.69c6.04,23.33,21.54,43.63,42.3,55.81c5.67,3.33,11.59,6.37,16.03,11.34
			c4.09,4.58,6.75,10.32,8.12,16.28c2.56,11.14,0.41,22.88-5.07,32.82c-6.06,10.98-16.01,19.84-27.81,24.2
			c-1.51,0.56-1.4,2.98,0.4,2.95c32.96-0.64,65.91-1.29,98.87-1.93c9.32-0.18,18.64-0.36,27.96-0.55c1.08-0.02,1.95-1.28,1.3-2.26
			c-6.5-9.74-18.93-12.18-29.85-12.77c-12.25-0.66-26.19-0.03-35.32-9.74c-7.74-8.23-9.81-20.42-11.2-31.21
			c-1.93-15.07-3.61-30.17-5.41-45.26c-0.48-4.06-1.09-8.13-1.36-12.21c-0.23-3.57-0.16-7.33,1.28-10.67
			c1.96-4.54,8.85-8.81,13.18-4.64c-0.15-0.35-0.29-0.71-0.44-1.06c0.16,8.81,0.31,17.62,0.47,26.43c0.03,1.57,1.96,1.94,2.8,0.76
			c8.32-11.81,15.37-24.5,21.01-37.8c5.67-13.35,9.96-27.27,12.71-41.52c1.55-8,2.61-16.1,3.2-24.22c-0.98,0.13-1.96,0.27-2.95,0.4
			c4.25,23.09,4.98,46.8,2.2,70.11c-0.79,6.62-1.88,13.2-3.24,19.73c-0.36,1.75,1.72,2.48,2.74,1.16
			c10.41-13.51,19.25-28.21,26.29-43.75c1.99-4.39,3.83-8.85,5.54-13.35c-0.98-0.13-1.96-0.27-2.95-0.4
			c-0.81,17.47-1.61,34.93-2.42,52.4c-0.07,1.5,2.09,2.03,2.8,0.76c9.38-16.85,18.74-33.71,28.18-50.53
			c2.65-4.73,5.32-9.46,7.99-14.18c0.95-1.68-1.64-3.2-2.59-1.51c-9.49,16.76-18.84,33.59-28.21,50.42
			c-2.65,4.77-5.31,9.53-7.96,14.3c0.93,0.25,1.86,0.5,2.8,0.76c0.81-17.47,1.61-34.93,2.42-52.4c0.08-1.8-2.38-1.89-2.95-0.4
			c-5.97,15.76-13.76,30.81-23.17,44.79c-2.66,3.95-5.45,7.82-8.36,11.59c0.91,0.39,1.83,0.77,2.74,1.16
			c4.88-23.48,6.22-47.68,3.85-71.55c-0.66-6.66-1.6-13.3-2.82-19.88c-0.32-1.76-2.83-1.19-2.95,0.4
			c-2.07,28.41-10.24,56.33-23.75,81.41c-3.84,7.12-8.1,14.01-12.76,20.62c0.93,0.25,1.86,0.5,2.8,0.76
			c-0.08-4.57-0.16-9.14-0.24-13.71c-0.04-2.24-0.08-4.49-0.12-6.73c-0.02-1.08-0.04-2.16-0.06-3.24c-0.02-1.01,0.22-2.38-0.18-3.32
			c-0.51-1.21-2.32-2.06-3.48-2.48c-1.33-0.48-2.81-0.6-4.22-0.44c-2.92,0.33-5.69,1.7-7.79,3.75c-5.38,5.24-4.78,13.72-3.98,20.54
			c1.04,8.94,2.13,17.88,3.2,26.82c1.04,8.74,2.02,17.5,3.14,26.23c0.84,6.55,1.89,13.14,4.07,19.39
			c2.11,6.06,5.31,11.9,10.28,16.09c5.67,4.79,12.77,6.75,20.02,7.58c7.19,0.82,14.48,0.46,21.65,1.49
			c6.28,0.9,12.93,2.74,17.72,7.13c1.16,1.06,2.18,2.24,3.05,3.55c0.43-0.75,0.86-1.5,1.3-2.26c-32.96,0.64-65.91,1.29-98.87,1.93
			c-9.32,0.18-18.64,0.36-27.96,0.55c0.13,0.98,0.27,1.96,0.4,2.95c21.61-7.98,37.82-30.28,36.03-53.69
			c-0.47-6.14-2.1-12.2-5.04-17.63c-3.14-5.81-7.74-10.33-13.26-13.89c-5.49-3.54-11.32-6.45-16.58-10.36
			c-4.86-3.62-9.33-7.79-13.34-12.33c-9.15-10.36-15.82-22.85-19.29-36.23C527.29,513.02,524.4,513.81,524.88,515.69L524.88,515.69z
			"/>
	</g>
	<g display="inline">
		<path fill="#DD0A0A" d="M720.13,475.81c7.28,16.19,4.25,34.58,1.44,51.43c-2.77,16.6-5.51,34.09,0.73,50.27
			c2.94,7.61,7.66,14.4,14.42,19.07c1.31,0.9,2.7-0.82,2.05-2.05c-12.37-23.38-3.08-50.49,5.53-73.39
			c4.73-12.57,9.14-25.18,12.39-38.22c3.26-13.06,5.57-26.36,6.93-39.76c1.53-14.98,1.83-30.08,0.93-45.11
			c-0.93,0.25-1.86,0.5-2.8,0.76c10.66,17.65,15.07,39.01,11.99,59.43c-3.26,21.64-14.58,43.62-8.27,65.79
			c2.71,9.54,8.92,18.49,18.14,22.67c1.59,0.72,2.88-1,1.82-2.36c-5.6-7.16-7.12-16.46-6.76-25.33c0.4-9.88,3.03-19.55,5.91-28.96
			c6.33-20.72,14.95-40.87,17.49-62.56c1.38-11.82,0.86-23.96-2.86-35.32c-0.6-1.83-3.5-1.04-2.89,0.8
			c6.85,20.92,2.46,43.28-3.91,63.72c-3.28,10.54-7.11,20.9-10.38,31.44c-2.99,9.66-5.71,19.56-6.3,29.7
			c-0.59,10.13,1.21,20.48,7.58,28.63c0.61-0.79,1.21-1.57,1.82-2.36c-8.14-3.68-13.7-11.25-16.38-19.62
			c-3.31-10.34-2.19-21.53,0.03-31.97c2.36-11.06,6.04-21.82,7.79-33.01c1.57-10.06,1.45-20.3-0.3-30.33
			c-1.96-11.24-6.03-22.11-11.93-31.88c-0.73-1.21-2.89-0.78-2.8,0.76c1.64,27.12-0.7,54.43-6.97,80.87
			c-3.12,13.15-7.34,25.92-12.1,38.56c-4.71,12.52-9.61,25.15-11.61,38.44c-2.05,13.56-1.19,27.82,5.31,40.12
			c0.68-0.68,1.37-1.37,2.05-2.05c-12.17-8.41-16.67-24.04-16.77-38.17c-0.13-18.22,5.67-35.84,6.14-54.02
			c0.24-9.41-0.99-18.87-4.88-27.51C721.93,472.54,719.34,474.06,720.13,475.81L720.13,475.81z"/>
	</g>
	<g display="inline">
		<path fill="#DD0A0A" d="M799.27,392.7c-4.3-20.48-12.07-40.21-22.75-58.19c-10.68-17.98-24.27-34.27-40.18-47.84
			c-9.23-7.88-19.61-15.75-31.96-17.54c-0.13,0.98-0.27,1.96-0.4,2.95c15.18-0.46,29.84,4.9,42.4,13.18
			c13.15,8.67,23.83,20.56,33.08,33.19c5.31,7.25,10.2,14.79,15.03,22.36c0.94,1.48,3.05,0.5,2.74-1.16
			c-4.07-21.98-12.79-43.32-25.91-61.46c-12.45-17.2-28.95-31.34-48.7-39.44c-11.21-4.6-23.27-7.11-35.39-7.06
			c-1.93,0.01-1.93,3.01,0,3c21.14-0.09,41.85,7.9,58.41,20.86c16.16,12.65,28.52,29.64,37.09,48.19
			c5.4,11.68,9.27,24.06,11.61,36.71c0.91-0.39,1.83-0.77,2.74-1.16c-8.78-13.79-17.85-27.54-29.08-39.48
			c-10.76-11.44-23.63-21.05-38.48-26.47c-8.16-2.98-16.84-4.54-25.54-4.27c-1.6,0.05-2.14,2.69-0.4,2.95
			c10.92,1.58,20.18,8.09,28.49,14.96c7.91,6.54,15.26,13.74,21.99,21.49c13.4,15.44,24.33,33.11,32.13,52.02
			c4.4,10.66,7.81,21.71,10.18,33C796.77,395.39,799.67,394.59,799.27,392.7L799.27,392.7z"/>
	</g>
	<g display="inline">
		<path fill="#DD0A0A" d="M688.95,234.33c1.93,0,1.93-3,0-3C687.02,231.33,687.02,234.33,688.95,234.33L688.95,234.33z"/>
	</g>
	<g display="inline">
		<path fill="#DD0A0A" d="M687.89,231.94c-0.06,0.06-0.12,0.12-0.17,0.17c-0.15,0.14-0.25,0.3-0.31,0.48
			c-0.09,0.18-0.14,0.37-0.13,0.58c-0.01,0.21,0.04,0.4,0.13,0.58c0.06,0.19,0.16,0.35,0.31,0.48c0.1,0.08,0.2,0.16,0.3,0.23
			c0.23,0.14,0.49,0.2,0.76,0.2c0.13-0.02,0.27-0.04,0.4-0.05c0.25-0.07,0.47-0.2,0.66-0.39c0.06-0.06,0.12-0.12,0.17-0.17
			c0.15-0.14,0.25-0.3,0.31-0.48c0.09-0.18,0.14-0.37,0.13-0.58c0.01-0.21-0.04-0.4-0.13-0.58c-0.06-0.19-0.16-0.35-0.31-0.48
			c-0.1-0.08-0.2-0.16-0.3-0.23c-0.23-0.14-0.49-0.2-0.76-0.2c-0.13,0.02-0.27,0.04-0.4,0.05
			C688.3,231.62,688.08,231.75,687.89,231.94L687.89,231.94z"/>
	</g>
	<g display="inline">
		<path fill="#DD0A0A" d="M687.38,231.32c-16.63,0.36-33.17,3.54-48.78,9.28c-15.62,5.74-30.27,13.95-43.31,24.31
			c-13.16,10.46-24.48,23.14-33.37,37.41c-8.98,14.4-15.51,30.35-19.32,46.88c-3.83,16.6-4.97,33.86-3.1,50.81
			c0.23,2.08,0.51,4.16,0.82,6.24c0.84-0.49,1.67-0.97,2.51-1.46c-10.16-8.36-22.76-12.31-34.23-18.39
			c-5.28-2.8-10.37-6.07-14.58-10.34c-4.34-4.4-7.33-9.76-8.79-15.77c-3.17-13.13,0.64-26.54,4.75-38.99
			c2.21-6.69,4.52-13.33,6.23-20.17c1.7-6.8,2.91-13.72,3.67-20.68c1.73-15.83,0.95-31.89-2.23-47.5c-0.39-1.89-3.28-1.09-2.89,0.8
			c2.84,13.96,3.68,28.3,2.52,42.5c-0.59,7.19-1.7,14.32-3.31,21.35c-1.6,6.95-3.81,13.7-6.07,20.46
			c-4.26,12.74-8.31,25.97-6.25,39.55c0.94,6.19,3.3,12.08,7.14,17.04c3.68,4.76,8.47,8.54,13.57,11.67
			c12.37,7.6,27,11.28,38.34,20.61c1.2,0.99,2.73,0.04,2.51-1.46c-2.49-16.45-2.06-33.35,1.06-49.69
			c3.14-16.43,8.94-32.34,17.22-46.87c8.16-14.33,18.72-27.17,31.19-37.94c12.28-10.6,26.35-19.21,41.36-25.37
			c15.07-6.18,31.14-10.01,47.4-11.01c1.98-0.12,3.96-0.2,5.94-0.24C689.31,234.28,689.31,231.28,687.38,231.32L687.38,231.32z"/>
	</g>
	<g display="inline">
		<path fill="#DD0A0A" d="M496.75,232.93c-1.12-3.65-2.3-7.42-2.01-11.28c0.21-2.82,1.44-5.89,3.85-7.54
			c2.86-1.95,6.65-1.53,9.91-2.14c3.26-0.61,6.17-2.31,8.67-4.45c4.85-4.15,8.62-9.86,11.39-15.57c2.83-5.83,4.68-12.08,5.52-18.51
			c0.94-7.21,0.53-14.55-1.25-21.6c-0.25-1.01-1.79-1.56-2.51-0.66c-4.65,5.88-11.32,9.74-18.74,10.82c0.63,0.48,1.27,0.96,1.9,1.45
			c-0.6-5.49-1.2-10.98-1.8-16.47c-0.49-4.52-1-9.52-5.07-12.31c-3.88-2.66-8.49-0.55-11,2.91c-1.44,1.98-2.29,4.3-3.36,6.49
			c-1.03,2.1-2.2,4.13-3.51,6.07c-2.93,4.34-6.6,8.22-10.76,11.4c0.73,0.3,1.47,0.6,2.2,0.9c-1.93-6.52-5.4-12.55-10.12-17.45
			c-2.32-2.41-5.32-5.18-8.93-4.81c-3.07,0.32-5.04,2.78-6.08,5.49c-1.36,3.56-0.51,7.66-2.33,11.07c-0.91,1.7,1.68,3.22,2.59,1.51
			c1.85-3.46,1.26-7.31,2.35-10.95c0.42-1.41,1.17-2.97,2.5-3.73c1.64-0.95,3.42-0.14,4.83,0.85c3.02,2.14,5.54,5.37,7.53,8.45
			c2.09,3.22,3.68,6.69,4.77,10.37c0.25,0.83,1.4,1.51,2.2,0.9c6.67-5.09,12.13-11.67,15.7-19.28c1.46-3.12,3.64-9.22,8.18-8.34
			c4.33,0.83,4.87,6.54,5.25,10.01c0.62,5.65,1.24,11.3,1.86,16.95c0.12,1.05,0.86,1.6,1.9,1.45c7.85-1.15,15.14-5.37,20.06-11.6
			c-0.84-0.22-1.67-0.44-2.51-0.66c3.19,12.68,1.65,26.44-4.14,38.16c-2.79,5.65-6.58,11.53-11.68,15.36
			c-2.71,2.04-5.63,2.92-8.98,3.25c-3.38,0.33-6.73,0.75-9.35,3.12c-6.07,5.51-4.02,14.4-1.93,21.21
			C494.42,235.56,497.32,234.78,496.75,232.93L496.75,232.93z"/>
	</g>
	<g display="inline">
		<path fill="#DD0A0A" d="M454.47,159.05c1.93,0,1.93-3,0-3C452.54,156.05,452.54,159.05,454.47,159.05L454.47,159.05z"/>
	</g>
	<g display="inline">
		<path fill="#DD0A0A" d="M453.02,155.5c-3.27-5.79-8.07-10.68-13.82-14.02c-2.94-1.71-6.32-3.34-9.74-3.62
			c-3.15-0.25-6.64,1.23-7.77,4.37c-0.61,1.69-0.29,3.53,0.19,5.21c0.58,2.04,1.23,4.06,1.85,6.09c0.62,2.05,1.25,4.11,1.87,6.16
			c0.57,1.88,1.36,3.84,1.51,5.81c0.11,1.4-0.18,3.18-1.5,3.97c-1.52,0.9-3.41-0.13-4.76-0.88c-3.19-1.75-6.25-3.37-10-3.37
			c-3.26,0-6.56,1.28-8.77,3.73c-2.17,2.41-2.85,5.51-2.51,8.67c0.35,3.2,1.54,6.37,1.37,9.62c-0.18,3.48-2.85,5.52-5.61,7.19
			c-3.5,2.12-7.04,4.16-10.56,6.24c-2.84,1.68-6.71,3.44-6.91,7.23c-0.19,3.59,3.24,4.85,6.25,4.61c4.04-0.33,8.1-1.16,12.15-1.23
			c1.11-0.02,3.64,0.31,3.45,2c-0.13,1.19-2.04,1.21-2.9,1.21c-2.65-0.02-5.91-0.69-7.75,1.81c-1.96,2.66,0.15,5.72,2.82,6.74
			c1.61,0.62,3.31,0.41,4.95-0.01c1.55-0.4,3.28-1.21,4.91-0.96c1.19,0.18,2.46,0.89,2.28,2.22c-0.25,1.91,2.75,1.89,3,0
			c0.38-2.96-2.59-4.95-5.21-5.21c-1.61-0.16-3.21,0.34-4.74,0.77c-1.56,0.45-3.32,1.03-4.81,0.07c-0.9-0.58-1.45-1.63-0.28-2.25
			c1.13-0.59,2.65-0.32,3.86-0.22c2.44,0.2,5.58-0.22,6.59-2.84c1.22-3.18-1.78-5.85-4.69-6.23c-1.78-0.23-3.59,0.08-5.37,0.27
			c-2.1,0.23-4.2,0.45-6.31,0.68c-1.31,0.14-3.18,0.61-4.45,0.04c-1.49-0.68-0.55-2.49,0.28-3.28c1.23-1.18,2.92-1.95,4.38-2.8
			c1.83-1.08,3.67-2.16,5.5-3.24c3.03-1.79,6.41-3.4,8.98-5.85c2.33-2.22,3.36-5.18,3.16-8.37c-0.35-5.61-3.98-12.76,2.35-16.41
			c2.99-1.72,6.69-1.39,9.75-0.02c2.87,1.28,5.57,3.77,8.93,3.39c3.3-0.37,5.16-3.51,5.18-6.61c0.01-1.76-0.49-3.47-0.99-5.14
			c-0.62-2.06-1.25-4.11-1.87-6.16c-0.67-2.21-1.35-4.42-2.02-6.64c-0.5-1.64-1.47-3.81-0.53-5.46c2.03-3.54,7.3-1.5,10.05-0.23
			c6.6,3.05,12.09,8.13,15.67,14.47C451.38,158.69,453.97,157.18,453.02,155.5L453.02,155.5z"/>
	</g>
</g>
<g id="Capa_2">
	<g id="XMLID_00000063635294248337868850000013540811072564497794_">
		<g>
			<path fill="#F70606" d="M670.05,557.75c0.32,0.07,0.63,0.14,0.95,0.25C670.37,558,670.14,558,670.05,557.75z"/>
			<path fill="#F70606" d="M547.77,286.04c-2.08,10.75-1.81,22.45,3.67,31.92c5.51,9.52,15.46,15.52,25.4,20.23
				c9.94,4.7,20.46,8.63,28.92,15.65c-6.44-42.17,6.13-86.87,33.6-119.51c27.47-32.63,69.37-52.65,112.02-53.51v0.38
				c20.51-0.1,40.73,7.42,57.18,19.66c16.5,12.27,29.32,29.11,38.27,47.61c6.07,12.54,10.44,25.89,12.96,39.59
				c-10.81-16.99-22.13-33.97-37.2-47.31c-15.07-13.34-34.49-22.86-54.6-22.17c10.36,1.43,19.47,7.5,27.6,14.08
				c33.44,27.05,57.21,65.85,66.12,107.93l0.06-0.01c5.95,17.95,3.58,37.65-1.38,55.9c-4.97,18.25-12.45,35.77-16.81,54.17
				c-3.43,14.46-4.43,31.12,4.79,42.76c-9.75-4.33-16.08-14.39-18.19-24.85c-2.12-10.46-0.56-21.32,1.89-31.7
				c2.45-10.39,5.78-20.59,7.26-31.16c2.88-20.5-1.53-41.95-12.28-59.64c2.25,36.79-2.91,74.01-15.08,108.8
				c-5.06,14.47-11.34,28.59-14.57,43.58c-3.24,14.98-3.15,31.33,4.08,44.85c-11.64-7.94-16.88-22.73-17.46-36.8
				c-0.57-14.07,2.77-27.96,4.75-41.9c1.98-13.95,2.49-28.72-3.34-41.54l-1.68-0.95c-7.37,13.04-14.66,26.13-21.95,39.22
				c-4.34,7.8-8.68,15.6-13.03,23.4c0.81-17.47,1.61-34.94,2.42-52.4c-7.68,20.34-18.39,39.53-31.68,56.74
				c6.22-29.76,6.58-60.74,1.04-90.63c-2.63,36.74-15.48,72.69-36.72,102.78c-0.16-8.81-0.31-17.62-0.47-26.43
				c-4.22-4.25-12.11-1.42-14.99,3.83c-2.87,5.25-2.24,11.64-1.53,17.59c1.98,16.63,3.97,33.27,5.95,49.91
				c0.58,4.82,1.28,9.83,2.4,14.68c-1.47-1.46-3.08-2.38-5.19-3.79c0,0.37,0,0.6,0.05,0.75c-4.28-0.94-8.1,1.36-12.2,1.21
				c0.02-0.56,0.04-1.13,0.05-1.7c0.12-11.11-3.85-22.55-12.11-29.98c-4.66-4.19-10.39-6.93-15.73-10.2
				c-18.27-11.18-32.22-29.22-38.57-49.67l-1.58,0.48c-1.13-3.76-2.26-7.51-3.39-11.27c3.03,10.95,6.08,21.96,7.2,33.27
				c1.12,11.3,0.23,23.02-4.36,33.42c-10.2,23.1-36.79,36.29-45.2,60.11c-1.31,3.71-2.11,7.9-0.54,11.51
				c1.87,4.3,6.51,6.57,10.79,8.5c-40.78-1.25-81.61-0.79-122.36,1.39c9.79-10.09,25.08-12.13,39.13-12.51
				c14.05-0.38,28.86,0.14,41.23-6.53c9.53-5.15,16.69-14.48,19.26-25l0.53,0.13c5.6-13.08,11.2-26.17,16.79-39.25
				c1.42-3.3,2.54-7.8-0.35-9.93c-2.8-2.05-7.47-0.08-9.84-2.61c-2.63-2.8,0.54-7.5-0.64-11.15c-0.72-2.25-3.02-3.67-5.33-4.17
				c-2.32-0.5-4.71-0.27-7.08-0.32c-8.34-0.19-16.19-3.87-23.4-8.07c-23.13-13.47-42.59-33.17-55.77-56.47
				c0.06,16.82,6.08,33.57,16.74,46.58c10.66,13.02,25.88,22.22,42.36,25.6c-14.66,2.14-30.03-0.95-42.74-8.57l-1.13-1.21
				c-10.42-6.42-15.93-18.4-19.74-30.03c-8.29-25.34-11.26-52.28-20.94-77.13c-0.63-1.61-1.32-3.27-2.61-4.44
				c-1.28-1.16-3.33-1.66-4.77-0.7c-1.16,0.77-1.62,2.22-1.99,3.56c-1.62,5.7-3.23,11.39-4.85,17.08l-2.69-0.48
				c-1.76-4.1-2.7-8.5-3.47-12.9c-6.91-39.53-0.53-81.26,17.89-116.92l-0.64-0.4c6.5-10.54,13.58-20.73,21.18-30.51
				c3.63-4.67,7.37-9.24,11.11-13.82c4.26-5.19,8.51-10.39,12.77-15.59c-3.35,1.45-6.69,2.91-10.04,4.36
				c-1.72,0.75-3.84,1.46-5.34,0.33c-1.46-1.1-1.41-3.27-1.22-5.09c0.49-4.64,0.99-9.34,2.67-13.69
				c3.33-8.57,10.78-14.75,17.93-20.53c0.85-0.69,1.7-1.37,2.54-2.05l-0.09-0.11c0.43-2.27-2.37-3.92-4.67-3.74
				c-2.3,0.17-4.46,1.35-6.76,1.4c-2.31,0.05-4.97-1.97-4.17-4.14c0.73-2.01,3.49-2.12,5.62-1.89c2.13,0.23,4.9,0.05,5.56-1.99
				c0.48-1.49-0.67-3.12-2.13-3.71c-1.45-0.6-3.09-0.45-4.65-0.28c-3.23,0.35-6.47,0.69-9.7,1.04c-1.68,0.18-3.66,0.24-4.71-1.08
				c-0.89-1.12-0.65-2.83,0.17-4c0.82-1.18,2.1-1.94,3.33-2.67c3.95-2.33,7.9-4.66,11.84-6.99c2.55-1.5,5.24-3.16,6.47-5.85
				c2.45-5.38-2.14-11.84-0.29-17.46c1.02-3.08,3.94-5.31,7.11-5.96c3.18-0.66,6.54,0.13,9.38,1.7c2.57,1.42,5.48,3.53,8.14,2.28
				c1.59-0.76,2.45-2.58,2.56-4.34c0.11-1.76-0.41-3.49-0.92-5.18c-1.4-4.58-2.79-9.16-4.18-13.74c-0.47-1.54-0.94-3.18-0.49-4.73
				c0.57-1.99,2.61-3.3,4.67-3.56c2.05-0.27,4.12,0.34,6.05,1.1c7.56,2.99,14.03,8.66,17.98,15.76l2.3,1.22
				c1.51-2.65,1.35-5.89,1.82-8.9c0.47-3.02,2.09-6.35,5.09-6.89c2.47-0.44,4.8,1.2,6.62,2.91c5.27,4.93,9.17,11.3,11.19,18.22
				c6.47-4.9,11.72-11.39,15.16-18.74c0.98-2.09,1.83-4.28,3.27-6.09c1.43-1.81,3.61-3.22,5.91-3.05c2.37,0.18,4.36,2.01,5.41,4.15
				s1.32,4.56,1.58,6.92c0.64,5.82,1.28,11.63,1.91,17.44c7.59-1.06,14.7-5.17,19.4-11.21c4.39,17.14,0.12,36.27-11.13,49.93
				c-3.01,3.66-6.71,7.06-11.32,8.18c-3.42,0.83-7.21,0.36-10.33,2.01c-3.41,1.8-5.19,5.8-5.38,9.66
				c-0.18,3.85,0.96,7.63,2.09,11.32l0.9,0.01c4.96,24.18,3.91,49.57-3.05,73.26C554.08,265.1,549.85,275.3,547.77,286.04z"/>
		</g>
		<g>
			<path fill="none" stroke="#000000" stroke-miterlimit="10" d="M671,558c-0.63,0-0.86,0-0.95-0.25
				C670.37,557.82,670.68,557.89,671,558z"/>
			<path fill="none" stroke="#000000" stroke-miterlimit="10" d="M783.75,422.1l1.68,0.95c5.83,12.82,5.32,27.59,3.34,41.54
				c-1.98,13.94-5.32,27.83-4.75,41.9c0.58,14.07,5.82,28.86,17.46,36.8c-7.23-13.52-7.32-29.87-4.08-44.85
				c3.23-14.99,9.51-29.11,14.57-43.58c12.17-34.79,17.33-72.01,15.08-108.8c10.75,17.69,15.16,39.14,12.28,59.64
				c-1.48,10.57-4.81,20.77-7.26,31.16c-2.45,10.38-4.01,21.24-1.89,31.7c2.11,10.46,8.44,20.52,18.19,24.85
				c-9.22-11.64-8.22-28.3-4.79-42.76c4.36-18.4,11.84-35.92,16.81-54.17c4.96-18.25,7.33-37.95,1.38-55.9l-0.06,0.01
				c-8.91-42.08-32.68-80.88-66.12-107.93c-8.13-6.58-17.24-12.65-27.6-14.08c20.11-0.69,39.53,8.83,54.6,22.17
				c15.07,13.34,26.39,30.32,37.2,47.31c-2.52-13.7-6.89-27.05-12.96-39.59c-8.95-18.5-21.77-35.34-38.27-47.61
				c-16.45-12.24-36.67-19.76-57.18-19.66v-0.38c-42.65,0.86-84.55,20.88-112.02,53.51c-27.47,32.64-40.04,77.34-33.6,119.51
				c-8.46-7.02-18.98-10.95-28.92-15.65c-9.94-4.71-19.89-10.71-25.4-20.23c-5.48-9.47-5.75-21.17-3.67-31.92
				c2.08-10.74,6.31-20.94,9.39-31.44c6.96-23.69,8.01-49.08,3.05-73.26l-0.9-0.01c-1.13-3.69-2.27-7.47-2.09-11.32
				c0.19-3.86,1.97-7.86,5.38-9.66c3.12-1.65,6.91-1.18,10.33-2.01c4.61-1.12,8.31-4.52,11.32-8.18
				c11.25-13.66,15.52-32.79,11.13-49.93c-4.7,6.04-11.81,10.15-19.4,11.21c-0.63-5.81-1.27-11.62-1.91-17.44
				c-0.26-2.36-0.53-4.78-1.58-6.92s-3.04-3.97-5.41-4.15c-2.3-0.17-4.48,1.24-5.91,3.05c-1.44,1.81-2.29,4-3.27,6.09
				c-3.44,7.35-8.69,13.84-15.16,18.74c-2.02-6.92-5.92-13.29-11.19-18.22c-1.82-1.71-4.15-3.35-6.62-2.91
				c-3,0.54-4.62,3.87-5.09,6.89c-0.47,3.01-0.31,6.25-1.82,8.9l-2.3-1.22c-3.95-7.1-10.42-12.77-17.98-15.76
				c-1.93-0.76-4-1.37-6.05-1.1c-2.06,0.26-4.1,1.57-4.67,3.56c-0.45,1.55,0.02,3.19,0.49,4.73c1.39,4.58,2.78,9.16,4.18,13.74
				c0.51,1.69,1.03,3.42,0.92,5.18c-0.11,1.76-0.97,3.58-2.56,4.34c-2.66,1.25-5.57-0.86-8.14-2.28c-2.84-1.57-6.2-2.36-9.38-1.7
				c-3.17,0.65-6.09,2.88-7.11,5.96c-1.85,5.62,2.74,12.08,0.29,17.46c-1.23,2.69-3.92,4.35-6.47,5.85
				c-3.94,2.33-7.89,4.66-11.84,6.99c-1.23,0.73-2.51,1.49-3.33,2.67c-0.82,1.17-1.06,2.88-0.17,4c1.05,1.32,3.03,1.26,4.71,1.08
				c3.23-0.35,6.47-0.69,9.7-1.04c1.56-0.17,3.2-0.32,4.65,0.28c1.46,0.59,2.61,2.22,2.13,3.71c-0.66,2.04-3.43,2.22-5.56,1.99
				c-2.13-0.23-4.89-0.12-5.62,1.89c-0.8,2.17,1.86,4.19,4.17,4.14c2.3-0.05,4.46-1.23,6.76-1.4c2.3-0.18,5.1,1.47,4.67,3.74
				l0.09,0.11c-0.84,0.68-1.69,1.36-2.54,2.05c-7.15,5.78-14.6,11.96-17.93,20.53c-1.68,4.35-2.18,9.05-2.67,13.69
				c-0.19,1.82-0.24,3.99,1.22,5.09c1.5,1.13,3.62,0.42,5.34-0.33c3.35-1.45,6.69-2.91,10.04-4.36c-4.26,5.2-8.51,10.4-12.77,15.59
				c-3.74,4.58-7.48,9.15-11.11,13.82c-7.6,9.78-14.68,19.97-21.18,30.51l0.64,0.4c-18.42,35.66-24.8,77.39-17.89,116.92
				c0.77,4.4,1.71,8.8,3.47,12.9l2.69,0.48c1.62-5.69,3.23-11.38,4.85-17.08c0.37-1.34,0.83-2.79,1.99-3.56
				c1.44-0.96,3.49-0.46,4.77,0.7c1.29,1.17,1.98,2.83,2.61,4.44c9.68,24.85,12.65,51.79,20.94,77.13
				c3.81,11.63,9.32,23.61,19.74,30.03l1.13,1.21c12.71,7.62,28.08,10.71,42.74,8.57c-16.48-3.38-31.7-12.58-42.36-25.6
				c-10.66-13.01-16.68-29.76-16.74-46.58c13.18,23.3,32.64,43,55.77,56.47c7.21,4.2,15.06,7.88,23.4,8.07
				c2.37,0.05,4.76-0.18,7.08,0.32c2.31,0.5,4.61,1.92,5.33,4.17c1.18,3.65-1.99,8.35,0.64,11.15c2.37,2.53,7.04,0.56,9.84,2.61
				c2.89,2.13,1.77,6.63,0.35,9.93c-5.59,13.08-11.19,26.17-16.79,39.25l-0.53-0.13c-2.57,10.52-9.73,19.85-19.26,25
				c-12.37,6.67-27.18,6.15-41.23,6.53c-14.05,0.38-29.34,2.42-39.13,12.51c40.75-2.18,81.58-2.64,122.36-1.39
				c-4.28-1.93-8.92-4.2-10.79-8.5c-1.57-3.61-0.77-7.8,0.54-11.51c8.41-23.82,35-37.01,45.2-60.11c4.59-10.4,5.48-22.12,4.36-33.42
				c-1.12-11.31-4.17-22.32-7.2-33.27c1.13,3.76,2.26,7.51,3.39,11.27l1.58-0.48c6.35,20.45,20.3,38.49,38.57,49.67
				c5.34,3.27,11.07,6.01,15.73,10.2c8.26,7.43,12.23,18.87,12.11,29.98c-0.01,0.57-0.03,1.14-0.05,1.7
				c4.1,0.15,7.92-2.15,12.2-1.21C670,557.6,670,557.37,670,557c2.11,1.41,3.72,2.33,5.19,3.79c-1.12-4.85-1.82-9.86-2.4-14.68
				c-1.98-16.64-3.97-33.28-5.95-49.91c-0.71-5.95-1.34-12.34,1.53-17.59c2.88-5.25,10.77-8.08,14.99-3.83
				c0.16,8.81,0.31,17.62,0.47,26.43c21.24-30.09,34.09-66.04,36.72-102.78c5.54,29.89,5.18,60.87-1.04,90.63
				c13.29-17.21,24-36.4,31.68-56.74c-0.81,17.46-1.61,34.93-2.42,52.4c4.35-7.8,8.69-15.6,13.03-23.4
				C769.09,448.23,776.38,435.14,783.75,422.1z"/>
			<path fill="none" stroke="#000000" stroke-miterlimit="10" d="M469.75,172.27c-0.05,0.04-0.1,0.08-0.15,0.12"/>
			<path fill="none" stroke="#000000" stroke-miterlimit="10" d="M418,268.98c-0.43,0.69-0.86,1.38-1.28,2.07"/>
			<path fill="none" stroke="#000000" stroke-miterlimit="10" d="M592.37,476.08c-0.82-2.73-1.64-5.46-2.46-8.19"/>
			<path fill="none" stroke="#000000" stroke-miterlimit="10" d="M531.99,559.36c-0.1,0.48-0.2,0.95-0.32,1.42"/>
			<path fill="none" stroke="#000000" stroke-miterlimit="10" d="M784.94,420c-0.4,0.7-0.79,1.4-1.19,2.1"/>
			<path fill="none" stroke="#000000" stroke-miterlimit="10" d="M591.49,467.41c-0.42-1.36-0.81-2.74-1.16-4.12"/>
			<path fill="none" stroke="#000000" stroke-miterlimit="10" d="M751.38,181.2c-0.05,0-0.1,0-0.15,0"/>
			<path fill="none" stroke="#000000" stroke-miterlimit="10" d="M861.82,341.1c-0.04-0.17-0.07-0.34-0.11-0.51"/>
			<path fill="none" stroke="#000000" stroke-miterlimit="10" d="M752.95,181c-0.06,0.06-0.12,0.12-0.17,0.17"/>
		</g>
	</g>
	<g>
		<path fill="#F7F7F7" d="M449.6,584.01c-5.95,0.53-12,1.09-17.54,3.33c-5.54,2.23-10.6,6.43-12.4,12.13
			c-2.44,7.74,1.93,16.51,8.78,20.87c6.84,4.36,15.52,4.96,23.53,3.62c8.01-1.34,15.59-4.43,23.29-7.01
			c23.57-7.89,48.74-11.02,73.52-9.12c4.69,0.36,9.93,0.73,13.54-2.28c3.56-2.97,4.19-8.25,3.51-12.84
			c-0.68-4.59-2.39-9.04-2.49-13.67c-0.2-9.26,5.92-17.33,11.77-24.51c5.86-7.18,12.07-15.12,12.12-24.39
			c-12.12-0.11-24.23-0.23-36.35-0.34c-6.68-0.06-13.9,0.04-19.23,4.07c-5.61,4.24-7.57,11.61-10.85,17.82
			c-6.46,12.24-18.74,20.59-31.8,25.18c-13.06,4.59-27.01,5.86-40.8,7.1"/>
		<g>
			<path d="M449.6,582.51c-9.34,0.84-19.4,1.94-26.47,8.79c-2.94,2.85-5,6.54-5.51,10.62c-0.5,3.96,0.49,8,2.38,11.48
				c4.34,7.97,12.86,11.9,21.62,12.58c9.92,0.77,19.5-2.51,28.72-5.74c9.9-3.48,19.94-6.38,30.27-8.31
				c10.24-1.91,20.65-2.95,31.07-3.11c5.16-0.08,10.32,0.05,15.47,0.4c4.3,0.29,8.91,0.92,13.03-0.7c3.84-1.52,6.29-4.89,7.05-8.9
				c0.87-4.57-0.2-9-1.25-13.44c-1.16-4.89-1.58-9.49,0.02-14.34c1.44-4.36,4.03-8.28,6.77-11.93c5.51-7.34,12.32-14.11,14.97-23.14
				c0.63-2.15,0.96-4.38,1-6.62c0.01-0.82-0.7-1.49-1.5-1.5c-12.18-0.11-24.37-0.24-36.55-0.34c-4.86-0.04-9.91-0.01-14.56,1.58
				c-4.59,1.58-8.08,4.67-10.6,8.78c-2.43,3.95-3.92,8.37-6.1,12.45c-2.19,4.11-5.08,7.79-8.44,11.01
				c-6.95,6.66-15.69,11.22-24.81,14.13c-12.29,3.92-25.19,5.09-37.97,6.23c-1.91,0.17-1.93,3.17,0,3
				c21.01-1.88,43.29-4.12,60.54-17.5c3.68-2.86,6.98-6.15,9.78-9.89c2.82-3.77,4.72-7.95,6.66-12.2c1.88-4.13,4.01-8.56,7.88-11.19
				c4.09-2.78,9.16-3.29,13.97-3.39c6.5-0.13,13.03,0.08,19.53,0.14c6.89,0.06,13.78,0.13,20.66,0.19c-0.5-0.5-1-1-1.5-1.5
				c-0.14,8.94-6.03,16.39-11.42,23.01c-5.4,6.64-11.16,13.85-12.29,22.62c-0.62,4.85,0.7,9.46,1.74,14.15
				c0.84,3.74,1.41,7.95-0.24,11.57c-1.77,3.9-5.71,5.04-9.7,5.09c-4.49,0.05-8.99-0.55-13.48-0.69
				c-19.66-0.6-39.44,1.91-58.33,7.39c-9.43,2.74-18.52,6.8-28.15,8.81c-8.46,1.76-18.11,1.61-25.42-3.54
				c-6.06-4.27-9.96-12.71-6.89-19.88c3.49-8.15,12.81-11.23,20.89-12.38c2.38-0.34,4.77-0.55,7.16-0.76
				C451.51,585.34,451.53,582.34,449.6,582.51L449.6,582.51z"/>
		</g>
	</g>
	<g>
		<path d="M420.83,598.19c1.92,4.67,6.75,6.92,11.62,6.93c3.04,0.01,6.04-0.74,8.96-1.52c3.04-0.81,6.07-1.63,9.1-2.45
			c12.25-3.29,24.5-6.58,36.76-9.87c6.12-1.64,12.23-3.28,18.35-4.93c5.17-1.39,10.34-2.82,15.37-4.7c5.02-1.88,9.91-4.18,14.28-7.3
			c4.13-2.95,7.69-6.54,10.7-10.63c6.7-9.11,10.31-20.26,11.94-31.36c0.28-1.89-2.61-2.7-2.89-0.8c-1.39,9.48-4.19,18.89-9.24,27.09
			c-2.45,3.98-5.44,7.61-8.97,10.69c-3.87,3.37-8.38,5.94-13.07,7.98c-9.8,4.27-20.48,6.55-30.77,9.31
			c-11.69,3.14-23.38,6.28-35.08,9.42c-6.51,1.75-13.01,3.65-19.56,5.23c-4.75,1.14-12.28,1.73-14.6-3.9
			C423,595.63,420.09,596.4,420.83,598.19L420.83,598.19z"/>
	</g>
	<g>
		<path d="M445.14,586.5c4.67,2.52,7.81,7.48,7.98,12.8c0.07,1.93,3.07,1.93,3,0c-0.21-6.34-3.87-12.36-9.47-15.39
			C444.96,582.99,443.44,585.58,445.14,586.5L445.14,586.5z"/>
	</g>
	<g>
		<path d="M468.69,584.36c0.19,0.12,0.37,0.25,0.55,0.38c0.09,0.07,0.18,0.13,0.27,0.2c0.2,0.15-0.26-0.22,0.07,0.05
			c0.33,0.27,0.65,0.55,0.95,0.85c0.3,0.3,0.59,0.61,0.87,0.93c0.07,0.09,0.14,0.17,0.21,0.26c0.07,0.08,0.18,0.23,0.06,0.07
			c0.14,0.18,0.27,0.36,0.39,0.54c0.48,0.7,0.89,1.44,1.25,2.22c0.18,0.39-0.06-0.16,0.03,0.07c0.04,0.1,0.08,0.21,0.12,0.31
			c0.08,0.21,0.15,0.42,0.22,0.63c0.14,0.43,0.25,0.86,0.35,1.29c0.17,0.77,1.1,1.29,1.85,1.05c0.8-0.26,1.23-1.02,1.05-1.85
			c-0.88-3.94-3.36-7.4-6.73-9.59c-0.66-0.43-1.69-0.15-2.05,0.54C467.75,583.06,467.98,583.91,468.69,584.36L468.69,584.36z"/>
	</g>
	<g>
		<path d="M480.18,580.45c0.19,0.12,0.37,0.25,0.55,0.38c0.09,0.07,0.18,0.13,0.27,0.2c0.2,0.15-0.26-0.22,0.07,0.05
			c0.33,0.27,0.65,0.55,0.95,0.85c0.3,0.3,0.59,0.61,0.87,0.93c0.07,0.09,0.14,0.17,0.21,0.26c0.07,0.08,0.18,0.23,0.06,0.07
			c0.14,0.18,0.27,0.36,0.39,0.54c0.48,0.7,0.89,1.44,1.25,2.22c0.18,0.39-0.06-0.16,0.03,0.07c0.04,0.1,0.08,0.21,0.12,0.31
			c0.08,0.21,0.15,0.42,0.22,0.63c0.14,0.43,0.25,0.86,0.35,1.29c0.17,0.77,1.1,1.29,1.85,1.05c0.8-0.26,1.23-1.02,1.05-1.85
			c-0.88-3.94-3.36-7.4-6.73-9.59c-0.66-0.43-1.69-0.16-2.05,0.54C479.25,579.15,479.47,580,480.18,580.45L480.18,580.45z"/>
	</g>
	<g>
		<path d="M491.24,577.3c1.89,1.07,3.37,2.28,4.78,4.02c0.02,0.03,0.22,0.28,0.09,0.12c0.08,0.1,0.15,0.2,0.23,0.31
			c0.15,0.2,0.29,0.41,0.43,0.62c0.29,0.44,0.55,0.89,0.79,1.36c0.11,0.22,0.22,0.45,0.32,0.67c0.2,0.42-0.05-0.13,0.05,0.12
			c0.05,0.11,0.09,0.23,0.14,0.34c0.19,0.5,0.35,1.02,0.48,1.54c0.2,0.78,1.07,1.26,1.85,1.05c0.79-0.22,1.25-1.06,1.05-1.85
			c-1.2-4.66-4.54-8.56-8.69-10.9c-0.71-0.4-1.64-0.17-2.05,0.54C490.3,575.94,490.54,576.9,491.24,577.3L491.24,577.3z"/>
	</g>
	<g>
		<path d="M503.06,571.57c0.85,0.47,1.52,1.17,2.12,1.93c0.75,0.96,1.46,1.97,2.13,2.98c1.39,2.11,2.23,4.37,2.91,6.79
			c0.52,1.86,3.41,1.07,2.89-0.8c-0.76-2.73-1.75-5.34-3.34-7.7c-1.41-2.1-2.93-4.54-5.2-5.8
			C502.88,568.05,501.37,570.64,503.06,571.57L503.06,571.57z"/>
	</g>
	<g>
		<path d="M511.85,565.04c2.46,1.73,4.38,4.13,6.29,6.42c2.06,2.46,3.76,5.05,5.33,7.86c0.94,1.69,3.53,0.18,2.59-1.51
			c-0.84-1.51-1.68-3.02-2.66-4.44c-0.96-1.4-2.04-2.72-3.13-4.02c-2.1-2.51-4.2-5-6.9-6.89c-0.66-0.47-1.67-0.12-2.05,0.54
			C510.87,563.74,511.18,564.57,511.85,565.04L511.85,565.04z"/>
	</g>
	<g>
		<path d="M519.77,556.64c5.53,4.75,9.9,10.65,12.85,17.32c0.33,0.74,1.41,0.91,2.05,0.54c0.76-0.45,0.87-1.31,0.54-2.05
			c-3.04-6.87-7.62-13.03-13.32-17.93C520.43,553.27,518.3,555.38,519.77,556.64L519.77,556.64z"/>
	</g>
	<g>
		<path d="M524.76,548.71c8.17,2.23,14.75,9.61,15.8,18.07c0.1,0.8,0.62,1.5,1.5,1.5c0.73,0,1.6-0.69,1.5-1.5
			c-1.21-9.8-8.42-18.34-18-20.96C523.7,545.31,522.9,548.2,524.76,548.71L524.76,548.71z"/>
	</g>
	<g>
		<path d="M529.32,539.22c7.25,3.46,13.36,8.96,17.52,15.84c1,1.65,3.59,0.14,2.59-1.51c-4.4-7.29-10.91-13.24-18.59-16.91
			C529.1,535.81,527.58,538.39,529.32,539.22L529.32,539.22z"/>
	</g>
	<g>
		<path d="M421.51,613.47c6.94,4.91,15.84,6.06,24.11,5.09c9.73-1.14,18.84-4.85,28.18-7.6c18.99-5.59,38.71-7.95,58.49-7.36
			c10.66,0.32,21.64,0.98,31.88-2.62c1.81-0.64,1.03-3.54-0.8-2.89c-8.96,3.15-18.5,2.92-27.86,2.62
			c-9.62-0.31-19.19-0.23-28.77,0.75c-9.68,0.99-19.29,2.72-28.7,5.2c-9.28,2.45-18.24,6.13-27.65,8.1
			c-9.21,1.92-19.43,1.74-27.37-3.88C421.45,609.76,419.94,612.36,421.51,613.47L421.51,613.47z"/>
	</g>
	<path fill="none" stroke="#000000" stroke-miterlimit="10" d="M544.35,588.96c-0.22,1.43-0.38,4.47-1.82,5.31
		c-1.86,1.09-4.15-1.48-5.02-2.9c-2.75-4.53,0.17-9.96,4.5-12.14c4.14-2.08,10.62-2.37,13.64,1.77c2.61,3.59,1.81,9.19-1.33,12.19
		c-3.71,3.54-10.35,3.79-14.2,0.36"/>
	<path fill="none" stroke="#000000" stroke-miterlimit="10" d="M548.11,583.8c-0.4-1.91-0.85-3.81-1.38-5.69
		c-0.81,2.01-1.21,4.15-1.52,6.29"/>
	<path fill="none" stroke="#000000" stroke-miterlimit="10" d="M546.08,584.11c-3.07,0.1-6.15,0.37-9.16,1.03
		c5,2.79,10,5.8,13.9,10.05c-0.67-2.06-1.2-4.17-1.66-6.29"/>
	<path fill="none" stroke="#000000" stroke-miterlimit="10" d="M543.36,594.48c-0.16,0.17-0.32,0.34-0.47,0.52
		c5.27-2.89,8.34-8.55,13.74-11.26c-3.07,0.23-6.15,0.24-9.23,0.32"/>
	<g>
		<path fill="#F7F7F7" d="M558.76,593.26c-5.95,0.53-12,1.09-17.54,3.33c-5.54,2.23-10.6,6.43-12.4,12.13
			c-2.44,7.74,1.93,16.51,8.78,20.87c6.84,4.36,15.52,4.96,23.53,3.62c8.01-1.34,15.59-4.43,23.29-7.01
			c23.57-7.89,48.74-11.02,73.52-9.12c4.69,0.36,9.93,0.73,13.54-2.28c3.56-2.97,4.19-8.25,3.51-12.84
			c-0.68-4.59-2.39-9.04-2.49-13.67c-0.2-9.26,5.92-17.33,11.77-24.51c5.86-7.18,12.07-15.12,12.12-24.39
			c-12.12-0.11-24.23-0.23-36.35-0.34c-6.68-0.06-13.9,0.04-19.23,4.07c-5.61,4.24-7.57,11.61-10.85,17.82
			c-6.46,12.24-18.74,20.59-31.8,25.18c-13.06,4.59-27.01,5.86-40.8,7.1"/>
		<g>
			<path d="M558.76,591.76c-9.34,0.84-19.4,1.94-26.47,8.79c-2.94,2.85-5,6.54-5.51,10.62c-0.5,3.96,0.49,8,2.38,11.48
				c4.34,7.97,12.86,11.9,21.62,12.58c9.92,0.77,19.5-2.51,28.72-5.74c9.9-3.48,19.94-6.38,30.27-8.31
				c10.24-1.91,20.65-2.95,31.07-3.11c5.16-0.08,10.32,0.05,15.47,0.4c4.3,0.29,8.91,0.92,13.03-0.7c3.84-1.52,6.29-4.89,7.05-8.9
				c0.87-4.57-0.2-9-1.25-13.44c-1.16-4.89-1.58-9.49,0.02-14.34c1.44-4.36,4.03-8.28,6.77-11.93c5.51-7.34,12.32-14.11,14.97-23.14
				c0.63-2.15,0.96-4.38,1-6.62c0.01-0.82-0.7-1.49-1.5-1.5c-12.18-0.11-24.37-0.24-36.55-0.34c-4.86-0.04-9.91-0.01-14.56,1.58
				c-4.59,1.58-8.08,4.67-10.6,8.78c-2.43,3.95-3.92,8.37-6.1,12.45c-2.19,4.11-5.08,7.79-8.44,11.01
				c-6.95,6.66-15.69,11.22-24.81,14.13c-12.29,3.92-25.19,5.09-37.97,6.23c-1.91,0.17-1.93,3.17,0,3
				c21.01-1.88,43.29-4.12,60.54-17.5c3.68-2.86,6.98-6.15,9.78-9.89c2.82-3.77,4.72-7.95,6.66-12.2c1.88-4.13,4.01-8.56,7.88-11.19
				c4.09-2.78,9.16-3.29,13.97-3.39c6.5-0.13,13.03,0.08,19.53,0.14c6.89,0.06,13.78,0.13,20.66,0.19c-0.5-0.5-1-1-1.5-1.5
				c-0.14,8.94-6.03,16.39-11.42,23.01c-5.4,6.64-11.16,13.85-12.29,22.62c-0.62,4.85,0.7,9.46,1.74,14.15
				c0.84,3.74,1.41,7.95-0.24,11.57c-1.77,3.9-5.71,5.04-9.7,5.09c-4.49,0.05-8.99-0.55-13.48-0.69
				c-19.66-0.6-39.44,1.91-58.33,7.39c-9.43,2.74-18.52,6.81-28.15,8.81c-8.46,1.76-18.1,1.61-25.42-3.54
				c-6.06-4.27-9.96-12.71-6.89-19.88c3.49-8.15,12.81-11.23,20.89-12.38c2.38-0.34,4.77-0.55,7.16-0.76
				C560.67,594.59,560.69,591.59,558.76,591.76L558.76,591.76z"/>
		</g>
	</g>
</g>
<g id="Capa_5">
	<g id="XMLID_00000062901872727985759130000000817122687814067617_">
		<g>
			<path fill="#2F3649" d="M526.47,578.28c3.26-1.44,6.39-3.11,9.3-5.14c0.79-0.54,1.56-1.11,2.31-1.71
				c2.05-1.63,3.93-3.43,5.64-5.38c2.99-3.39,5.49-7.21,7.53-11.3c3.58-7.14,5.79-15.1,6.94-23.02l0.02-2.12
				c10.25,0.09,20.51,0.19,30.75,0.29c-0.05,9.26-6.26,17.21-12.12,24.39c-5.85,7.18-11.97,15.24-11.77,24.51
				c0.1,4.64,1.81,9.08,2.49,13.67c0.35,2.36,0.36,4.9-0.21,7.22l-1.85-0.39c-11.05,3.97-23.18,2.7-34.92,2.49
				c-19.51-0.34-39.08,2.43-57.73,8.18c-8.1,2.5-16.09,5.57-24.49,6.73c-8.4,1.16-17.48,0.2-24.36-4.76l-0.95,0.5
				c-2.23-4.07-3.04-8.81-1.65-13.21c0.22-0.71,0.5-1.4,0.82-2.07l1.79,0.39c1.29,3.37,4.94,5.37,8.53,5.75
				c3.59,0.37,7.17-0.57,10.65-1.51c11.44-3.07,22.87-6.14,34.3-9.21c3.91-1.05,7.81-2.1,11.71-3.15c4.2-1.13,8.4-2.25,12.6-3.39
				c1.45-0.38,2.89-0.77,4.34-1.16c2.43-0.65,4.88-1.31,7.31-2.03C517.89,581.57,522.29,580.12,526.47,578.28z M556.04,592.96
				c2.44-2.33,3.47-6.22,2.59-9.52c-0.25-0.96-0.66-1.86-1.25-2.67c-2.01-2.76-5.57-3.56-8.94-3.16c-1.68,0.2-3.32,0.69-4.7,1.39
				c-2.39,1.2-4.35,3.4-5.16,5.89c-0.67,2.01-0.57,4.22,0.66,6.25c0.7,1.15,2.35,3.06,3.94,3.15c2.75,1.67,6.37,1.89,9.42,0.78
				v-0.01C553.88,594.59,555.06,593.89,556.04,592.96z"/>
			<path fill="#FFFFFF" d="M565.5,599.3l1.85,0.39c-0.53,2.19-1.57,4.18-3.3,5.62c-3.61,3.01-8.85,2.64-13.54,2.28
				c-24.79-1.89-49.95,1.23-73.52,9.13c-7.7,2.57-15.29,5.67-23.29,7.01c-8.01,1.33-16.68,0.74-23.53-3.62
				c-2.95-1.89-5.44-4.59-7.12-7.67l0.95-0.5c6.88,4.96,15.96,5.92,24.36,4.76c8.4-1.16,16.39-4.23,24.49-6.73
				c18.65-5.75,38.22-8.52,57.73-8.18C542.32,602,554.45,603.27,565.5,599.3z"/>
			<path fill="#FFFFFF" d="M558.63,583.44c0.88,3.3-0.15,7.19-2.59,9.52c-0.98,0.93-2.16,1.63-3.44,2.1l-0.04-0.1
				c-0.6-1.82-1.08-3.67-1.49-5.53c2.22-2.23,4.43-4.49,7.28-5.92L558.63,583.44z"/>
			<path fill="#FFFFFF" d="M558.63,583.44l-0.28,0.07c-2.83,0.21-5.67,0.24-8.5,0.3l-0.01-0.24c-0.4-1.91-0.85-3.81-1.38-5.69
				l-0.02-0.27c3.37-0.4,6.93,0.4,8.94,3.16C557.97,581.58,558.38,582.48,558.63,583.44z"/>
			<path fill="#FFFFFF" d="M558.21,529.61l-0.02,2.12c-1.15,7.92-3.36,15.88-6.94,23.02l-1.39-0.68
				c-4.23-7.07-10.6-12.85-18.05-16.38l-2.02-0.37c1.02-1.38,2.19-2.64,3.6-3.69c5.33-4.03,12.55-4.14,19.22-4.07
				C554.48,529.58,556.34,529.59,558.21,529.61z"/>
			<path fill="#2F3649" d="M548.91,591.55c1.29,1.05,2.51,2.18,3.65,3.41l0.04,0.1v0.01c-3.05,1.11-6.67,0.89-9.42-0.78
				c0.37,0.03,0.73-0.05,1.08-0.25c1.25-0.73,1.53-3.12,1.73-4.67C546.99,590.06,547.97,590.79,548.91,591.55z"/>
			<path fill="#2F3649" d="M546.98,583.92c0.3-2.06,0.7-4.11,1.48-6.04c0.53,1.88,0.98,3.78,1.38,5.69l0.01,0.24
				c2.83-0.06,5.67-0.09,8.5-0.3c-2.85,1.43-5.06,3.69-7.28,5.92c-0.71,0.72-1.42,1.43-2.16,2.12c-0.94-0.76-1.92-1.49-2.92-2.18
				c-2.35-1.62-4.85-3.07-7.34-4.46C541.39,584.31,544.18,584.03,546.98,583.92z"/>
			<path fill="#2F3649" d="M551.07,589.43c0.41,1.86,0.89,3.71,1.49,5.53c-1.14-1.23-2.36-2.36-3.65-3.41
				C549.65,590.86,550.36,590.15,551.07,589.43z"/>
			<path fill="#FFFFFF" d="M549.86,554.07l1.39,0.68c-2.04,4.09-4.54,7.91-7.53,11.3c-1.25-8.88-8.16-16.71-16.83-19.02l-2.06-0.39
				c1.47-3.27,2.91-6.55,4.96-9.32l2.02,0.37C539.26,541.22,545.63,547,549.86,554.07z"/>
			<path fill="#FFFFFF" d="M548.44,577.61l0.02,0.27c-0.78,1.93-1.18,3.98-1.48,6.04c-2.8,0.11-5.59,0.39-8.33,0.99l-0.07-0.02
				c0.81-2.49,2.77-4.69,5.16-5.89C545.12,578.3,546.76,577.81,548.44,577.61z"/>
			<path fill="#FFFFFF" d="M543.18,594.29c-1.59-0.09-3.24-2-3.94-3.15c-1.23-2.03-1.33-4.24-0.66-6.25l0.07,0.02
				c2.49,1.39,4.99,2.84,7.34,4.46c-0.2,1.55-0.48,3.94-1.73,4.67C543.91,594.24,543.55,594.32,543.18,594.29z"/>
			<path fill="#FFFFFF" d="M543.72,566.05c-1.71,1.95-3.59,3.75-5.64,5.38c-0.75,0.6-1.52,1.17-2.31,1.71l-0.12-0.17
				c-2.97-6.76-7.48-12.83-13.09-17.62l-1.99-0.56c0.71-1.08,1.36-2.19,1.97-3.34c0.82-1.55,1.56-3.18,2.29-4.81l2.06,0.39
				C535.56,549.34,542.47,557.17,543.72,566.05z"/>
			<path fill="#FFFFFF" d="M535.65,572.97l0.12,0.17c-2.91,2.03-6.04,3.7-9.3,5.14c-0.81-1.46-1.63-2.91-2.57-4.29
				c-1.06-1.56-2.28-3-3.49-4.45c-1.84-2.19-3.72-4.4-6.07-6.03l-0.56-0.59c2.56-2.45,4.86-5.16,6.79-8.13l1.99,0.56
				C528.17,560.14,532.68,566.21,535.65,572.97z"/>
			<path fill="#FFFFFF" d="M523.9,573.99c0.94,1.38,1.76,2.83,2.57,4.29c-4.18,1.84-8.58,3.29-13.02,4.57l-0.06-0.2
				c-0.5-1.81-1.07-3.62-1.94-5.28c-0.74-1.43-1.69-2.73-2.64-4.03c-0.92-1.26-1.88-2.56-3.26-3.29l-0.29-0.45
				c3.06-1.96,5.93-4.19,8.52-6.68l0.56,0.59c2.35,1.63,4.23,3.84,6.07,6.03C521.62,570.99,522.84,572.43,523.9,573.99z"/>
			<path fill="#FFFFFF" d="M513.39,582.65l0.06,0.2c-2.43,0.72-4.88,1.38-7.31,2.03c-1.45,0.39-2.89,0.78-4.34,1.16l-0.07-0.27
				c-1.02-4.07-3.96-7.75-8-10l-0.09-0.23c4.04-1.6,7.96-3.58,11.62-5.94l0.29,0.45c1.38,0.73,2.34,2.03,3.26,3.29
				c0.95,1.3,1.9,2.6,2.64,4.03C512.32,579.03,512.89,580.84,513.39,582.65z"/>
			<path fill="#FFFFFF" d="M501.8,586.04c-4.2,1.14-8.4,2.26-12.6,3.39l-0.49-1.81c-0.76-3.49-2.94-6.65-5.91-8.6
				c2.68-0.68,5.33-1.47,7.94-2.39c0.97-0.34,1.94-0.7,2.9-1.09l0.09,0.23c4.04,2.25,6.98,5.93,8,10L501.8,586.04z"/>
			<path fill="#FFFFFF" d="M488.71,587.62l0.49,1.81c-3.9,1.05-7.8,2.1-11.71,3.15l-0.28-1.05c-0.77-3.54-2.99-6.74-6.04-8.7
				l-0.23-1.44c4-0.62,7.96-1.38,11.86-2.37C485.77,580.97,487.95,584.13,488.71,587.62z"/>
			<path fill="#FFFFFF" d="M477.21,591.53l0.28,1.05c-11.43,3.07-22.86,6.14-34.3,9.21c-3.48,0.94-7.06,1.88-10.65,1.51
				c-3.59-0.38-7.24-2.38-8.53-5.75l-1.79-0.39c2.24-4.64,6.72-8.1,11.57-10.06c5.54-2.23,11.59-2.79,17.54-3.32l-1.39-0.05
				c7-0.62,14.05-1.26,21-2.34l0.23,1.44C474.22,584.79,476.44,587.99,477.21,591.53z"/>
		</g>
		<g>
			<path fill="none" stroke="#000000" stroke-miterlimit="10" d="M451.33,583.78c-5.95,0.53-12,1.09-17.54,3.32
				c-4.85,1.96-9.33,5.42-11.57,10.06c-0.32,0.67-0.6,1.36-0.82,2.07c-1.39,4.4-0.58,9.14,1.65,13.21c1.68,3.08,4.17,5.78,7.12,7.67
				c6.85,4.36,15.52,4.95,23.53,3.62c8-1.34,15.59-4.44,23.29-7.01c23.57-7.9,48.73-11.02,73.52-9.13
				c4.69,0.36,9.93,0.73,13.54-2.28c1.73-1.44,2.77-3.43,3.3-5.62c0.57-2.32,0.56-4.86,0.21-7.22c-0.68-4.59-2.39-9.03-2.49-13.67
				c-0.2-9.27,5.92-17.33,11.77-24.51c5.86-7.18,12.07-15.13,12.12-24.39c-10.24-0.1-20.5-0.2-30.75-0.29
				c-1.87-0.02-3.73-0.03-5.6-0.05c-6.67-0.07-13.89,0.04-19.22,4.07c-1.41,1.05-2.58,2.31-3.6,3.69c-2.05,2.77-3.49,6.05-4.96,9.32
				c-0.73,1.63-1.47,3.26-2.29,4.81c-0.61,1.15-1.26,2.26-1.97,3.34c-1.93,2.97-4.23,5.68-6.79,8.13c-2.59,2.49-5.46,4.72-8.52,6.68
				c-3.66,2.36-7.58,4.34-11.62,5.94c-0.96,0.39-1.93,0.75-2.9,1.09c-2.61,0.92-5.26,1.71-7.94,2.39c-3.9,0.99-7.86,1.75-11.86,2.37
				c-6.95,1.08-14,1.72-21,2.34"/>
			<path fill="none" stroke="#000000" stroke-miterlimit="10" d="M424.01,597.55c1.29,3.37,4.94,5.37,8.53,5.75
				c3.59,0.37,7.17-0.57,10.65-1.51c11.44-3.07,22.87-6.14,34.3-9.21c3.91-1.05,7.81-2.1,11.71-3.15c4.2-1.13,8.4-2.25,12.6-3.39
				c1.45-0.38,2.89-0.77,4.34-1.16c2.43-0.65,4.88-1.31,7.31-2.03c4.44-1.28,8.84-2.73,13.02-4.57c3.26-1.44,6.39-3.11,9.3-5.14
				c0.79-0.54,1.56-1.11,2.31-1.71c2.05-1.63,3.93-3.43,5.64-5.38c2.99-3.39,5.49-7.21,7.53-11.3c3.58-7.14,5.79-15.1,6.94-23.02"/>
			<path fill="none" stroke="#000000" stroke-miterlimit="10" d="M471.17,582.83c3.05,1.96,5.27,5.16,6.04,8.7"/>
			<path fill="none" stroke="#000000" stroke-miterlimit="10" d="M482.67,578.93c0.04,0.03,0.09,0.06,0.13,0.09
				c2.97,1.95,5.15,5.11,5.91,8.6"/>
			<path fill="none" stroke="#000000" stroke-miterlimit="10" d="M493.73,575.77c4.04,2.25,6.98,5.93,8,10"/>
			<path fill="none" stroke="#000000" stroke-miterlimit="10" d="M505.55,570.05c1.38,0.73,2.34,2.03,3.26,3.29
				c0.95,1.3,1.9,2.6,2.64,4.03c0.87,1.66,1.44,3.47,1.94,5.28"/>
			<path fill="none" stroke="#000000" stroke-miterlimit="10" d="M514.34,563.51c2.35,1.63,4.23,3.84,6.07,6.03
				c1.21,1.45,2.43,2.89,3.49,4.45c0.94,1.38,1.76,2.83,2.57,4.29c0.01,0.01,0.01,0.03,0.02,0.04"/>
			<path fill="none" stroke="#000000" stroke-miterlimit="10" d="M522.56,555.35c5.61,4.79,10.12,10.86,13.09,17.62"/>
			<path fill="none" stroke="#000000" stroke-miterlimit="10" d="M526.89,547.03c8.67,2.31,15.58,10.14,16.83,19.02
				c0.03,0.17,0.05,0.33,0.07,0.5"/>
			<path fill="none" stroke="#000000" stroke-miterlimit="10" d="M531.81,537.69c7.45,3.53,13.82,9.31,18.05,16.38"/>
			<path fill="none" stroke="#000000" stroke-miterlimit="10" d="M424,611.94c6.88,4.96,15.96,5.92,24.36,4.76
				c8.4-1.16,16.39-4.23,24.49-6.73c18.65-5.75,38.22-8.52,57.73-8.18c11.74,0.21,23.87,1.48,34.92-2.49"/>
			<path fill="none" stroke="#000000" stroke-miterlimit="10" d="M546.08,588.73c-0.03,0.19-0.06,0.4-0.09,0.64
				c-0.2,1.55-0.48,3.94-1.73,4.67c-0.35,0.2-0.71,0.28-1.08,0.25c-1.59-0.09-3.24-2-3.94-3.15c-1.23-2.03-1.33-4.24-0.66-6.25
				c0.81-2.49,2.77-4.69,5.16-5.89c1.38-0.7,3.02-1.19,4.7-1.39c3.37-0.4,6.93,0.4,8.94,3.16c0.59,0.81,1,1.71,1.25,2.67
				c0.88,3.3-0.15,7.19-2.59,9.52c-0.98,0.93-2.16,1.63-3.44,2.1v0.01c-3.05,1.11-6.67,0.89-9.42-0.78
				c-0.48-0.27-0.92-0.6-1.34-0.97"/>
			<path fill="none" stroke="#000000" stroke-miterlimit="10" d="M549.84,583.57c-0.4-1.91-0.85-3.81-1.38-5.69
				c-0.78,1.93-1.18,3.98-1.48,6.04c-0.02,0.08-0.03,0.17-0.04,0.25"/>
			<path fill="none" stroke="#000000" stroke-miterlimit="10" d="M547.81,583.88c-0.28,0.01-0.55,0.02-0.83,0.04
				c-2.8,0.11-5.59,0.39-8.33,0.99c2.49,1.39,4.99,2.84,7.34,4.46c1,0.69,1.98,1.42,2.92,2.18c1.29,1.05,2.51,2.18,3.65,3.41
				c-0.6-1.82-1.08-3.67-1.49-5.53c-0.06-0.25-0.12-0.51-0.17-0.76"/>
			<path fill="none" stroke="#000000" stroke-miterlimit="10" d="M545.09,594.25c-0.16,0.17-0.32,0.34-0.47,0.52
				c1.59-0.88,2.98-2,4.29-3.22c0.74-0.69,1.45-1.4,2.16-2.12c2.22-2.23,4.43-4.49,7.28-5.92c-2.83,0.21-5.67,0.24-8.5,0.3
				c-0.24,0.01-0.48,0.01-0.72,0.02"/>
		</g>
	</g>
	<g id="XMLID_00000075853767715281025040000010919843230158566299_">
		<g>
			<path fill="#2F3649" d="M634.52,587.59c3.26-1.44,6.39-3.11,9.3-5.15c0.79-0.54,1.56-1.11,2.31-1.71
				c2.05-1.63,3.93-3.44,5.64-5.38c3-3.39,5.49-7.21,7.53-11.3c3.58-7.15,5.79-15.11,6.94-23.02l0.02-2.12
				c10.25,0.1,20.5,0.2,30.75,0.29c-0.05,9.27-6.26,17.21-12.11,24.39c-5.86,7.18-11.98,15.24-11.78,24.51
				c0.1,4.64,1.81,9.08,2.49,13.67c0.35,2.37,0.36,4.93-0.22,7.26l-1.83-0.42c-11.06,3.96-23.18,2.69-34.93,2.48
				c-19.51-0.34-39.07,2.43-57.72,8.19c-8.11,2.5-16.1,5.57-24.5,6.73c-8.4,1.16-17.48,0.19-24.36-4.76l-0.95,0.5
				c-2.23-4.07-3.04-8.81-1.65-13.21c0.23-0.71,0.5-1.4,0.82-2.07l1.79,0.39c1.29,3.37,4.94,5.36,8.53,5.74
				c3.59,0.38,7.17-0.57,10.66-1.51c11.43-3.07,22.87-6.14,34.3-9.21c3.9-1.05,7.8-2.1,11.7-3.14c4.2-1.13,8.41-2.26,12.61-3.39
				c1.44-0.39,2.89-0.77,4.33-1.16c2.43-0.65,4.88-1.31,7.31-2.03C625.94,590.88,630.34,589.43,634.52,587.59z M664.1,602.26
				c2.44-2.33,3.46-6.22,2.58-9.52c-0.25-0.95-0.66-1.86-1.25-2.66c-2.01-2.76-5.57-3.56-8.94-3.17c-1.68,0.2-3.32,0.7-4.7,1.39
				c-2.39,1.2-4.35,3.4-5.16,5.89c-0.66,2.01-0.57,4.22,0.66,6.25c0.71,1.16,2.36,3.08,3.95,3.16c0.43,0.27,0.88,0.49,1.35,0.67
				c2.52,1.03,5.49,1.04,8.06,0.1C661.93,603.9,663.12,603.2,664.1,602.26z"/>
			<path fill="#FFFFFF" d="M673.56,608.61l1.83,0.42c-0.53,2.17-1.56,4.15-3.28,5.58c-3.62,3.02-8.86,2.64-13.55,2.29
				c-24.79-1.9-49.95,1.23-73.52,9.12c-7.7,2.58-15.28,5.67-23.29,7.01c-8.01,1.34-16.68,0.75-23.53-3.62
				c-2.95-1.88-5.44-4.58-7.12-7.66l0.95-0.5c6.88,4.95,15.96,5.92,24.36,4.76c8.4-1.16,16.39-4.23,24.5-6.73
				c18.65-5.76,38.21-8.53,57.72-8.19C650.38,611.3,662.5,612.57,673.56,608.61z"/>
			<path fill="#FFFFFF" d="M666.68,592.74c0.88,3.3-0.14,7.19-2.58,9.52c-0.98,0.94-2.17,1.64-3.45,2.11l-0.04-0.11
				c-0.6-1.81-1.07-3.66-1.49-5.52c2.23-2.24,4.43-4.5,7.29-5.93L666.68,592.74z"/>
			<path fill="#FFFFFF" d="M666.68,592.74l-0.27,0.07c-2.83,0.21-5.67,0.25-8.51,0.31l-0.01-0.25c-0.4-1.91-0.84-3.81-1.38-5.69
				l-0.02-0.27c3.37-0.39,6.93,0.41,8.94,3.17C666.02,590.88,666.43,591.79,666.68,592.74z"/>
			<path fill="#FFFFFF" d="M666.26,538.91l-0.02,2.12c-1.15,7.91-3.36,15.87-6.94,23.02l-1.39-0.68
				c-4.23-7.07-10.6-12.84-18.05-16.37l-2.02-0.37c1.02-1.39,2.2-2.64,3.6-3.7c5.33-4.03,12.55-4.13,19.23-4.07
				C662.53,538.88,664.4,538.89,666.26,538.91z"/>
			<path fill="#FFFFFF" d="M660.61,604.26l0.04,0.11c-2.57,0.94-5.54,0.93-8.06-0.1l0.08-0.2c1.59-0.88,2.98-2,4.29-3.22
				C658.25,601.9,659.48,603.03,660.61,604.26z"/>
			<path fill="#2F3649" d="M655.03,593.22c0.3-2.05,0.7-4.11,1.48-6.04c0.54,1.88,0.98,3.78,1.38,5.69l0.01,0.25
				c2.84-0.06,5.68-0.1,8.51-0.31c-2.86,1.43-5.06,3.69-7.29,5.93c-0.71,0.71-1.42,1.43-2.16,2.11c-0.94-0.76-1.92-1.49-2.92-2.17
				c-2.35-1.63-4.85-3.08-7.34-4.47C649.44,593.61,652.23,593.33,655.03,593.22z"/>
			<path fill="#2F3649" d="M659.12,598.74c0.42,1.86,0.89,3.71,1.49,5.52c-1.13-1.23-2.36-2.36-3.65-3.41
				C657.7,600.17,658.41,599.45,659.12,598.74z"/>
			<path fill="#FFFFFF" d="M657.91,563.37l1.39,0.68c-2.04,4.09-4.53,7.91-7.53,11.3c-1.25-8.88-8.15-16.7-16.82-19.01l-2.07-0.4
				c1.47-3.26,2.91-6.54,4.96-9.31l2.02,0.37C647.31,550.53,653.68,556.3,657.91,563.37z"/>
			<path fill="#FFFFFF" d="M656.49,586.91l0.02,0.27c-0.78,1.93-1.18,3.99-1.48,6.04c-2.8,0.11-5.59,0.39-8.33,0.99l-0.07-0.02
				c0.81-2.49,2.77-4.69,5.16-5.89C653.17,587.61,654.81,587.11,656.49,586.91z"/>
			<path fill="#2F3649" d="M652.67,604.07l-0.08,0.2c-0.47-0.18-0.92-0.4-1.35-0.67c0.36,0.03,0.72-0.05,1.07-0.25
				c1.25-0.74,1.53-3.11,1.73-4.67c1,0.68,1.98,1.41,2.92,2.17C655.65,602.07,654.26,603.19,652.67,604.07z"/>
			<path fill="#FFFFFF" d="M651.24,603.6c-1.59-0.08-3.24-2-3.95-3.16c-1.23-2.03-1.32-4.24-0.66-6.25l0.07,0.02
				c2.49,1.39,4.99,2.84,7.34,4.47c-0.2,1.56-0.48,3.93-1.73,4.67C651.96,603.55,651.6,603.63,651.24,603.6z"/>
			<path fill="#FFFFFF" d="M651.77,575.35c-1.71,1.94-3.59,3.75-5.64,5.38c-0.75,0.6-1.52,1.17-2.31,1.71l-0.12-0.17
				c-2.96-6.76-7.48-12.83-13.09-17.62l-1.99-0.56c0.71-1.08,1.36-2.19,1.97-3.34c0.82-1.55,1.56-3.18,2.29-4.81l2.07,0.4
				C643.62,558.65,650.52,566.47,651.77,575.35z"/>
			<path fill="#FFFFFF" d="M643.7,582.27l0.12,0.17c-2.91,2.04-6.04,3.71-9.3,5.15c-0.81-1.46-1.63-2.91-2.56-4.29
				c-1.07-1.56-2.28-3.01-3.5-4.45c-1.84-2.19-3.71-4.41-6.07-6.04l-0.56-0.59c2.57-2.44,4.86-5.15,6.79-8.13l1.99,0.56
				C636.22,569.44,640.74,575.51,643.7,582.27z"/>
			<path fill="#FFFFFF" d="M631.96,583.3c0.93,1.38,1.75,2.83,2.56,4.29c-4.18,1.84-8.58,3.29-13.02,4.57l-0.06-0.21
				c-0.49-1.81-1.07-3.61-1.94-5.28c-0.74-1.42-1.69-2.73-2.64-4.03c-0.92-1.26-1.88-2.56-3.26-3.29l-0.29-0.45
				c3.06-1.96,5.93-4.18,8.52-6.68l0.56,0.59c2.36,1.63,4.23,3.85,6.07,6.04C629.68,580.29,630.89,581.74,631.96,583.3z"/>
			<path fill="#FFFFFF" d="M621.44,591.95l0.06,0.21c-2.43,0.72-4.88,1.38-7.31,2.03c-1.44,0.39-2.89,0.77-4.33,1.16l-0.08-0.28
				c-1.02-4.07-3.96-7.75-8-10l-0.09-0.22c4.04-1.61,7.97-3.59,11.62-5.95l0.29,0.45c1.38,0.73,2.34,2.03,3.26,3.29
				c0.95,1.3,1.9,2.61,2.64,4.03C620.37,588.34,620.95,590.14,621.44,591.95z"/>
			<path fill="#FFFFFF" d="M609.78,595.07l0.08,0.28c-4.2,1.13-8.41,2.26-12.61,3.39l-0.49-1.81c-0.76-3.48-2.92-6.64-5.9-8.61
				c2.67-0.68,5.32-1.46,7.93-2.38c0.97-0.34,1.94-0.71,2.9-1.09l0.09,0.22C605.82,587.32,608.76,591,609.78,595.07z"/>
			<path fill="#FFFFFF" d="M596.76,596.93l0.49,1.81c-3.9,1.04-7.8,2.09-11.7,3.14l-0.28-1.05c-0.77-3.53-3-6.73-6.04-8.69
				L579,590.7c4-0.62,7.96-1.39,11.86-2.38C593.84,590.29,596,593.45,596.76,596.93z"/>
			<path fill="#FFFFFF" d="M585.27,600.83l0.28,1.05c-11.43,3.07-22.87,6.14-34.3,9.21c-3.49,0.94-7.07,1.89-10.66,1.51
				c-3.59-0.38-7.24-2.37-8.53-5.74l-1.79-0.39c2.25-4.65,6.72-8.11,11.57-10.06c5.54-2.24,11.59-2.79,17.54-3.33l-1.39-0.04
				c7.01-0.63,14.06-1.27,21.01-2.34l0.23,1.44C582.27,594.1,584.5,597.3,585.27,600.83z"/>
		</g>
		<g>
			<path fill="none" stroke="#000000" stroke-miterlimit="10" d="M559.38,593.08c-5.95,0.54-12,1.09-17.54,3.33
				c-4.85,1.95-9.32,5.41-11.57,10.06c-0.32,0.67-0.59,1.36-0.82,2.07c-1.39,4.4-0.58,9.14,1.65,13.21
				c1.68,3.08,4.17,5.78,7.12,7.66c6.85,4.37,15.52,4.96,23.53,3.62c8.01-1.34,15.59-4.43,23.29-7.01
				c23.57-7.89,48.73-11.02,73.52-9.12c4.69,0.35,9.93,0.73,13.55-2.29c1.72-1.43,2.75-3.41,3.28-5.58
				c0.58-2.33,0.57-4.89,0.22-7.26c-0.68-4.59-2.39-9.03-2.49-13.67c-0.2-9.27,5.92-17.33,11.78-24.51
				c5.85-7.18,12.06-15.12,12.11-24.39c-10.25-0.09-20.5-0.19-30.75-0.29c-1.86-0.02-3.73-0.03-5.59-0.05
				c-6.68-0.06-13.9,0.04-19.23,4.07c-1.4,1.06-2.58,2.31-3.6,3.7c-2.05,2.77-3.49,6.05-4.96,9.31c-0.73,1.63-1.47,3.26-2.29,4.81
				c-0.61,1.15-1.26,2.26-1.97,3.34c-1.93,2.98-4.22,5.69-6.79,8.13c-2.59,2.5-5.46,4.72-8.52,6.68c-3.65,2.36-7.58,4.34-11.62,5.95
				c-0.96,0.38-1.93,0.75-2.9,1.09c-2.61,0.92-5.26,1.7-7.93,2.38c-3.9,0.99-7.86,1.76-11.86,2.38c-6.95,1.07-14,1.71-21.01,2.34"/>
			<path fill="none" stroke="#000000" stroke-miterlimit="10" d="M532.06,606.86c1.29,3.37,4.94,5.36,8.53,5.74
				c3.59,0.38,7.17-0.57,10.66-1.51c11.43-3.07,22.87-6.14,34.3-9.21c3.9-1.05,7.8-2.1,11.7-3.14c4.2-1.13,8.41-2.26,12.61-3.39
				c1.44-0.39,2.89-0.77,4.33-1.16c2.43-0.65,4.88-1.31,7.31-2.03c4.44-1.28,8.84-2.73,13.02-4.57c3.26-1.44,6.39-3.11,9.3-5.15
				c0.79-0.54,1.56-1.11,2.31-1.71c2.05-1.63,3.93-3.44,5.64-5.38c3-3.39,5.49-7.21,7.53-11.3c3.58-7.15,5.79-15.11,6.94-23.02"/>
			<path fill="none" stroke="#000000" stroke-miterlimit="10" d="M579.23,592.14c3.04,1.96,5.27,5.16,6.04,8.69"/>
			<path fill="none" stroke="#000000" stroke-miterlimit="10" d="M590.72,588.23c0.05,0.03,0.09,0.06,0.14,0.09
				c2.98,1.97,5.14,5.13,5.9,8.61"/>
			<path fill="none" stroke="#000000" stroke-miterlimit="10" d="M601.78,585.07c4.04,2.25,6.98,5.93,8,10"/>
			<path fill="none" stroke="#000000" stroke-miterlimit="10" d="M613.6,579.35c1.38,0.73,2.34,2.03,3.26,3.29
				c0.95,1.3,1.9,2.61,2.64,4.03c0.87,1.67,1.45,3.47,1.94,5.28"/>
			<path fill="none" stroke="#000000" stroke-miterlimit="10" d="M622.39,572.81c2.36,1.63,4.23,3.85,6.07,6.04
				c1.22,1.44,2.43,2.89,3.5,4.45c0.93,1.38,1.75,2.83,2.56,4.29c0.01,0.01,0.01,0.03,0.02,0.04"/>
			<path fill="none" stroke="#000000" stroke-miterlimit="10" d="M630.61,564.65c5.61,4.79,10.13,10.86,13.09,17.62"/>
			<path fill="none" stroke="#000000" stroke-miterlimit="10" d="M634.95,556.34c8.67,2.31,15.57,10.13,16.82,19.01
				c0.03,0.17,0.05,0.33,0.07,0.5"/>
			<path fill="none" stroke="#000000" stroke-miterlimit="10" d="M639.86,547c7.45,3.53,13.82,9.3,18.05,16.37"/>
			<path fill="none" stroke="#000000" stroke-miterlimit="10" d="M532.05,621.25c6.88,4.95,15.96,5.92,24.36,4.76
				c8.4-1.16,16.39-4.23,24.5-6.73c18.65-5.76,38.21-8.53,57.72-8.19c11.75,0.21,23.87,1.48,34.93-2.48"/>
			<path fill="none" stroke="#000000" stroke-miterlimit="10" d="M654.13,598.03c-0.03,0.19-0.06,0.41-0.09,0.65
				c-0.2,1.56-0.48,3.93-1.73,4.67c-0.35,0.2-0.71,0.28-1.07,0.25c-1.59-0.08-3.24-2-3.95-3.16c-1.23-2.03-1.32-4.24-0.66-6.25
				c0.81-2.49,2.77-4.69,5.16-5.89c1.38-0.69,3.02-1.19,4.7-1.39c3.37-0.39,6.93,0.41,8.94,3.17c0.59,0.8,1,1.71,1.25,2.66
				c0.88,3.3-0.14,7.19-2.58,9.52c-0.98,0.94-2.17,1.64-3.45,2.11c-2.57,0.94-5.54,0.93-8.06-0.1c-0.47-0.18-0.92-0.4-1.35-0.67
				c-0.48-0.28-0.93-0.61-1.35-0.98"/>
			<path fill="none" stroke="#000000" stroke-miterlimit="10" d="M657.89,592.87c-0.4-1.91-0.84-3.81-1.38-5.69
				c-0.78,1.93-1.18,3.99-1.48,6.04c-0.02,0.08-0.03,0.17-0.04,0.25"/>
			<path fill="none" stroke="#000000" stroke-miterlimit="10" d="M655.86,593.18c-0.28,0.01-0.55,0.02-0.83,0.04
				c-2.8,0.11-5.59,0.39-8.33,0.99c2.49,1.39,4.99,2.84,7.34,4.47c1,0.68,1.98,1.41,2.92,2.17c1.29,1.05,2.52,2.18,3.65,3.41
				c-0.6-1.81-1.07-3.66-1.49-5.52c-0.06-0.26-0.11-0.51-0.17-0.77"/>
			<path fill="none" stroke="#000000" stroke-miterlimit="10" d="M653.14,603.55c-0.16,0.17-0.31,0.35-0.47,0.52
				c1.59-0.88,2.98-2,4.29-3.22c0.74-0.68,1.45-1.4,2.16-2.11c2.23-2.24,4.43-4.5,7.29-5.93c-2.83,0.21-5.67,0.25-8.51,0.31
				c-0.24,0.01-0.48,0.01-0.72,0.02"/>
		</g>
	</g>
</g>
</svg>
